<svg xmlns="http://www.w3.org/2000/svg" viewBox="0 0 720 240" role="img" aria-label="Latency distribution" style="max-width:100%;height:auto;background:#F6F3EB;display:block"><style>text{font-family:-apple-system, ui-sans-serif, system-ui, "IBM Plex Sans", sans-serif;fill:#3F3C37}.ti{font-size:13px;font-weight:600;fill:#14120F;letter-spacing:.02em}.tk{fill:#73706A;font-size:10px;font-family:"IBM Plex Mono", ui-monospace, SFMono-Regular, monospace;font-variant-numeric:tabular-nums}.ax{fill:#73706A;font-size:10px;letter-spacing:.08em;text-transform:uppercase}.lg{font-size:11px;fill:#3F3C37;font-family:"IBM Plex Mono", ui-monospace, SFMono-Regular, monospace}.kicker{font-size:10px;font-weight:600;letter-spacing:.12em;text-transform:uppercase;fill:#73706A}</style><rect x="0" y="0" width="720" height="240" fill="#F6F3EB"/><text x="24" y="26" class="kicker">Figure · latency distribution (ms)</text><text x="24" y="50" class="ti">Per-frame latency — min, p5, median, p95, max</text><line x1="200" y1="200" x2="680" y2="200" stroke="#14120F" stroke-width="1"/><line x1="200" y1="196" x2="200" y2="204" stroke="#14120F" stroke-width="1"/><text class="tk" x="200" y="218" text-anchor="middle">0</text><line x1="320" y1="196" x2="320" y2="204" stroke="#14120F" stroke-width="1"/><text class="tk" x="320" y="218" text-anchor="middle">12</text><line x1="440" y1="196" x2="440" y2="204" stroke="#14120F" stroke-width="1"/><text class="tk" x="440" y="218" text-anchor="middle">24</text><line x1="560" y1="196" x2="560" y2="204" stroke="#14120F" stroke-width="1"/><text class="tk" x="560" y="218" text-anchor="middle">36</text><line x1="680" y1="196" x2="680" y2="204" stroke="#14120F" stroke-width="1"/><text class="tk" x="680" y="218" text-anchor="middle">48</text><text class="tk" x="440" y="234" text-anchor="middle">milliseconds per frame</text><text x="24" y="100" class="lg" fill="#14120F" font-weight="600">image_proc</text><line x1="265.4" y1="96" x2="644.4" y2="96" stroke="#73706A" stroke-width="1" opacity="0.5"/><line x1="265.4" y1="90" x2="265.4" y2="102" stroke="#73706A" stroke-width="1"/><line x1="644.4" y1="90" x2="644.4" y2="102" stroke="#73706A" stroke-width="1"/><rect x="286.7" y="84" width="129.8" height="24" fill="#73706A" fill-opacity="0.12" stroke="#73706A" stroke-width="1.2"/><line x1="321.5" y1="83" x2="321.5" y2="109" stroke="#73706A" stroke-width="2.4"/><text class="tk" x="265.4" y="78" text-anchor="middle">6.6</text><text class="tk" x="644.4" y="78" text-anchor="middle">44.8</text><text class="tk" x="321.5" y="124" text-anchor="middle" fill="#73706A" font-weight="600">median 12.25</text><text x="24" y="152" class="lg" fill="#14120F" font-weight="600">prism_image_proc</text><line x1="219.3" y1="148" x2="591.7" y2="148" stroke="#8F2D11" stroke-width="1" opacity="0.5"/><line x1="219.3" y1="142" x2="219.3" y2="154" stroke="#8F2D11" stroke-width="1"/><line x1="591.7" y1="142" x2="591.7" y2="154" stroke="#8F2D11" stroke-width="1"/><rect x="227.4" y="136" width="115.9" height="24" fill="#8F2D11" fill-opacity="0.12" stroke="#8F2D11" stroke-width="1.2"/><line x1="247.6" y1="135" x2="247.6" y2="161" stroke="#8F2D11" stroke-width="2.4"/><text class="tk" x="219.3" y="130" text-anchor="middle">1.9</text><text class="tk" x="591.7" y="130" text-anchor="middle">39.5</text><text class="tk" x="247.6" y="176" text-anchor="middle" fill="#8F2D11" font-weight="600">median 4.80</text></svg>