<svg xmlns="http://www.w3.org/2000/svg" viewBox="0 0 720 240" role="img" aria-label="Latency over time" style="max-width:100%;height:auto;background:#F6F3EB;display:block"><style>text{font-family:-apple-system, ui-sans-serif, system-ui, "IBM Plex Sans", sans-serif;fill:#3F3C37}.ti{font-size:13px;font-weight:600;fill:#14120F;letter-spacing:.02em}.tk{fill:#73706A;font-size:10px;font-family:"IBM Plex Mono", ui-monospace, SFMono-Regular, monospace;font-variant-numeric:tabular-nums}.ax{fill:#73706A;font-size:10px;letter-spacing:.08em;text-transform:uppercase}.lg{font-size:11px;fill:#3F3C37;font-family:"IBM Plex Mono", ui-monospace, SFMono-Regular, monospace}.kicker{font-size:10px;font-weight:600;letter-spacing:.12em;text-transform:uppercase;fill:#73706A}</style><rect x="0" y="0" width="720" height="240" fill="#F6F3EB"/><text x="24" y="26" class="kicker">Figure · per-frame latency, entire run</text><text x="24" y="50" class="ti">image_proc vs gst_adapt_node — 170 s, 4217 samples</text><line x1="60" y1="204.0" x2="700" y2="204.0" stroke="#DDD7CB" stroke-width="1"/><text class="tk" x="54" y="207.0" text-anchor="end">0</text><line x1="60" y1="167.0" x2="700" y2="167.0" stroke="#DDD7CB" stroke-width="1"/><text class="tk" x="54" y="170.0" text-anchor="end">12</text><line x1="60" y1="130.0" x2="700" y2="130.0" stroke="#DDD7CB" stroke-width="1"/><text class="tk" x="54" y="133.0" text-anchor="end">24</text><line x1="60" y1="93.0" x2="700" y2="93.0" stroke="#DDD7CB" stroke-width="1"/><text class="tk" x="54" y="96.0" text-anchor="end">36</text><line x1="60" y1="56.0" x2="700" y2="56.0" stroke="#DDD7CB" stroke-width="1"/><text class="tk" x="54" y="59.0" text-anchor="end">48</text><line x1="60" y1="204" x2="700" y2="204" stroke="#14120F" stroke-width="1"/><line x1="60" y1="56" x2="60" y2="204" stroke="#14120F" stroke-width="1"/><polyline fill="none" stroke="#73706A" stroke-width="0.8" stroke-linejoin="round" stroke-linecap="round" opacity="0.55" points="60.0,164.0 60.3,174.9 60.6,165.8 60.9,167.7 61.2,175.9 61.5,167.6 61.8,145.5 62.1,143.3 62.4,162.3 62.7,142.1 63.0,160.1 63.3,172.9 63.6,143.7 63.9,166.8 64.3,149.5 64.6,142.9 64.9,143.8 65.2,178.3 65.5,144.0 65.8,173.7 66.1,167.8 66.4,172.2 66.7,168.4 67.0,175.3 67.3,178.9 67.6,141.4 67.9,139.9 68.2,145.0 68.5,168.9 68.8,139.5 69.1,159.9 69.4,144.5 69.7,133.8 70.0,143.3 70.3,172.7 70.6,144.1 70.9,171.6 71.2,179.8 71.5,140.7 71.8,161.9 72.1,167.4 72.5,142.9 72.8,176.9 73.1,176.4 73.4,174.6 73.7,170.0 74.0,135.8 74.3,169.5 74.6,138.8 74.9,137.9 75.2,133.9 75.5,141.7 75.8,142.6 76.1,144.3 76.4,143.1 76.7,147.5 77.0,143.8 77.3,144.9 77.6,139.2 77.9,140.2 78.2,132.8 78.5,145.4 78.8,143.1 79.1,140.4 79.4,142.9 79.7,171.2 80.0,179.9 80.4,111.0 80.7,166.9 81.0,159.1 81.3,164.9 81.6,143.6 81.9,141.8 82.2,144.2 82.5,171.2 82.8,145.1 83.1,143.3 83.4,162.6 83.7,136.5 84.0,125.4 84.3,144.4 84.6,171.3 84.9,164.2 85.2,173.7 85.5,99.2 85.8,164.2 86.1,181.1 86.4,142.5 86.7,163.4 87.0,162.7 87.3,138.9 87.6,174.8 87.9,138.8 88.2,142.7 88.6,138.8 88.9,143.2 89.2,140.3 89.5,174.7 89.8,120.8 90.1,126.1 90.4,134.0 90.7,179.4 91.0,173.7 91.3,174.0 91.6,172.5 91.9,166.6 92.2,138.5 92.5,175.9 92.8,164.4 93.1,167.1 93.4,150.9 93.7,169.2 94.0,173.7 94.3,165.8 94.6,173.4 94.9,164.2 95.2,140.1 95.5,172.9 95.8,163.4 96.1,108.1 96.4,156.8 96.8,141.0 97.1,146.5 97.4,140.1 97.7,171.8 98.0,169.2 98.3,180.0 98.6,168.5 98.9,152.9 99.2,173.9 99.5,167.3 99.8,166.0 100.1,171.9 100.4,169.3 100.7,141.3 101.0,107.8 101.3,137.7 101.6,169.1 101.9,138.2 102.2,137.6 102.5,167.5 102.8,142.7 103.1,109.5 103.4,155.6 103.7,168.2 104.0,140.6 104.3,172.1 104.7,169.6 105.0,134.5 105.3,135.4 105.6,132.9 105.9,169.4 106.2,175.3 106.5,144.9 106.8,144.1 107.1,143.5 107.4,174.8 107.7,169.3 108.0,167.9 108.3,132.6 108.6,162.5 108.9,142.9 109.2,175.1 109.5,171.5 109.8,174.7 110.1,170.0 110.4,171.4 110.7,176.4 111.0,161.9 111.3,178.9 111.6,153.8 111.9,179.1 112.2,176.7 112.5,173.6 112.9,163.7 113.2,144.4 113.5,142.9 113.8,172.6 114.1,157.9 114.4,167.0 114.7,149.1 115.0,167.2 115.3,169.3 115.6,141.0 115.9,144.3 116.2,170.2 116.5,140.0 116.8,169.2 117.1,163.4 117.4,170.4 117.7,130.7 118.0,171.5 118.3,160.5 118.6,161.5 118.9,167.3 119.2,162.4 119.5,142.0 119.8,140.5 120.1,166.6 120.4,168.7 120.7,160.3 121.1,172.6 121.4,168.6 121.7,155.6 122.0,162.3 122.3,138.4 122.6,144.6 122.9,163.9 123.2,142.2 123.5,168.3 123.8,139.8 124.1,173.4 124.4,141.0 124.7,141.7 125.0,165.3 125.3,174.5 125.6,161.9 125.9,135.7 126.2,143.8 126.5,164.2 126.8,154.5 127.1,172.8 127.4,146.7 127.7,173.5 128.0,140.2 128.3,167.9 128.6,173.6 129.0,158.2 129.3,130.4 129.6,136.6 129.9,153.5 130.2,174.3 130.5,174.3 130.8,159.6 131.1,168.2 131.4,171.3 131.7,171.8 132.0,170.4 132.3,147.2 132.6,168.5 132.9,161.3 133.2,135.0 133.5,159.0 133.8,149.9 134.1,140.1 134.4,143.8 134.7,150.8 135.0,175.9 135.3,161.9 135.6,169.3 135.9,163.0 136.2,163.9 136.5,175.5 136.8,139.5 137.2,168.9 137.5,167.2 137.8,177.5 138.1,136.6 138.4,166.4 138.7,166.2 139.0,134.8 139.3,173.4 139.6,143.7 139.9,168.2 140.2,175.6 140.5,173.7 140.8,147.0 141.1,159.8 141.4,172.1 141.7,126.7 142.0,141.3 142.3,143.8 142.6,171.0 142.9,146.0 143.2,170.2 143.5,138.6 143.8,120.6 144.1,174.6 144.4,138.5 144.7,173.6 145.0,153.7 145.4,172.5 145.7,165.2 146.0,175.9 146.3,166.7 146.6,166.2 146.9,140.6 147.2,165.6 147.5,165.4 147.8,172.9 148.1,171.1 148.4,147.3 148.7,174.0 149.0,172.4 149.3,165.3 149.6,169.5 149.9,170.2 150.2,170.7 150.5,166.3 150.8,131.2 151.1,169.6 151.4,177.0 151.7,172.3 152.0,172.5 152.3,169.7 152.6,171.6 152.9,174.3 153.3,145.5 153.6,161.2 153.9,164.9 154.2,156.8 154.5,166.7 154.8,139.6 155.1,141.1 155.4,169.8 155.7,146.4 156.0,172.3 156.3,139.5 156.6,173.0 156.9,165.3 157.2,138.2 157.5,168.0 157.8,171.8 158.1,164.7 158.4,164.8 158.7,169.3 159.0,178.5 159.3,170.8 159.6,129.7 159.9,175.6 160.2,67.0 160.5,143.0 160.8,169.5 161.1,173.6 161.5,172.3 161.8,137.2 162.1,173.0 162.4,135.5 162.7,159.3 163.0,165.9 163.3,163.8 163.6,142.6 163.9,175.0 164.2,142.7 164.5,169.8 164.8,169.9 165.1,163.5 165.4,176.5 165.7,135.6 166.0,156.5 166.3,164.7 166.6,172.9 166.9,138.8 167.2,172.1 167.5,178.0 167.8,174.6 168.1,145.0 168.4,138.0 168.7,153.0 169.0,163.6 169.3,167.2 169.7,166.8 170.0,177.3 170.3,142.8 170.6,170.1 170.9,173.3 171.2,172.2 171.5,143.8 171.8,163.5 172.1,164.1 172.4,169.2 172.7,140.4 173.0,179.1 173.3,144.3 173.6,139.2 173.9,172.0 174.2,150.2 174.5,172.6 174.8,160.5 175.1,164.8 175.4,156.0 175.7,173.4 176.0,175.1 176.3,168.2 176.6,139.1 176.9,167.3 177.2,180.7 177.6,176.6 177.9,167.8 178.2,143.5 178.5,156.6 178.8,160.9 179.1,152.9 179.4,160.4 179.7,156.8 180.0,148.9 180.3,176.1 180.6,144.6 180.9,169.3 181.2,173.3 181.5,170.6 181.8,173.1 182.1,177.4 182.4,144.8 182.7,174.2 183.0,145.1 183.3,175.1 183.6,172.9 183.9,165.2 184.2,167.1 184.5,167.7 184.8,143.5 185.1,144.7 185.4,169.7 185.8,143.2 186.1,176.6 186.4,147.0 186.7,143.5 187.0,166.5 187.3,166.2 187.6,171.3 187.9,139.1 188.2,146.7 188.5,143.5 188.8,171.5 189.1,173.8 189.4,141.3 189.7,170.5 190.0,147.5 190.3,166.8 190.6,162.0 190.9,176.3 191.2,138.0 191.5,170.0 191.8,172.7 192.1,176.1 192.4,175.1 192.7,170.6 193.0,156.4 193.3,164.6 193.6,160.6 194.0,173.1 194.3,174.5 194.6,177.7 194.9,160.5 195.2,175.9 195.5,179.4 195.8,179.7 196.1,170.4 196.4,161.6 196.7,162.4 197.0,166.7 197.3,176.3 197.6,174.2 197.9,168.8 198.2,165.3 198.5,172.6 198.8,176.6 199.1,166.0 199.4,160.2 199.7,168.1 200.0,171.0 200.3,174.8 200.6,175.7 200.9,172.0 201.2,167.4 201.5,174.8 201.9,175.9 202.2,169.0 202.5,170.4 202.8,166.7 203.1,142.8 203.4,177.1 203.7,174.4 204.0,143.1 204.3,174.2 204.6,142.2 204.9,176.1 205.2,143.7 205.5,169.3 205.8,172.7 206.1,169.4 206.4,139.9 206.7,172.9 207.0,175.8 207.3,172.5 207.6,145.9 207.9,175.3 208.2,166.0 208.5,141.8 208.8,166.2 209.1,143.9 209.4,141.8 209.7,144.4 210.1,144.9 210.4,169.1 210.7,141.9 211.0,143.0 211.3,157.8 211.6,171.0 211.9,166.0 212.2,110.0 212.5,169.3 212.8,149.5 213.1,142.4 213.4,173.4 213.7,144.6 214.0,176.6 214.3,167.1 214.6,165.5 214.9,142.5 215.2,172.6 215.5,177.2 215.8,175.1 216.1,173.8 216.4,177.3 216.7,167.8 217.0,151.2 217.3,170.4 217.6,143.8 217.9,163.0 218.3,172.6 218.6,143.2 218.9,174.8 219.2,180.2 219.5,175.2 219.8,140.9 220.1,174.4 220.4,159.9 220.7,155.0 221.0,158.1 221.3,134.1 221.6,173.0 221.9,163.8 222.2,144.1 222.5,165.6 222.8,173.6 223.1,170.2 223.4,160.6 223.7,138.0 224.0,141.5 224.3,142.5 224.6,140.3 224.9,170.3 225.2,169.9 225.5,166.4 225.8,170.9 226.2,172.9 226.5,138.3 226.8,164.6 227.1,160.2 227.4,170.7 227.7,150.6 228.0,146.3 228.3,146.1 228.6,145.9 228.9,147.5 229.2,142.1 229.5,163.0 229.8,161.5 230.1,141.4 230.4,142.5 230.7,145.6 231.0,142.4 231.3,170.0 231.6,174.8 231.9,175.4 232.2,173.8 232.5,155.3 232.8,167.7 233.1,136.2 233.4,169.0 233.7,140.9 234.0,147.0 234.4,148.4 234.7,132.4 235.0,136.2 235.3,127.6 235.6,171.7 235.9,171.6 236.2,173.2 236.5,165.1 236.8,175.9 237.1,174.5 237.4,164.2 237.7,172.2 238.0,175.5 238.3,168.6 238.6,173.3 238.9,145.6 239.2,146.5 239.5,164.6 239.8,177.3 240.1,172.0 240.4,173.9 240.7,148.8 241.0,174.4 241.3,155.5 241.6,166.8 241.9,138.6 242.2,175.0 242.6,172.9 242.9,167.1 243.2,171.8 243.5,168.0 243.8,175.1 244.1,141.8 244.4,162.6 244.7,160.5 245.0,173.5 245.3,175.1 245.6,172.2 245.9,170.5 246.2,145.9 246.5,171.9 246.8,177.3 247.1,168.5 247.4,170.7 247.7,167.5 248.0,141.3 248.3,145.7 248.6,177.7 248.9,177.7 249.2,145.9 249.5,145.3 249.8,147.5 250.1,145.9 250.5,134.0 250.8,157.3 251.1,163.5 251.4,176.6 251.7,142.8 252.0,145.6 252.3,163.8 252.6,143.8 252.9,145.7 253.2,171.3 253.5,163.8 253.8,139.1 254.1,138.4 254.4,143.5 254.7,143.5 255.0,172.8 255.3,173.2 255.6,177.2 255.9,176.7 256.2,141.4 256.5,160.1 256.8,165.9 257.1,168.6 257.4,173.4 257.7,172.9 258.0,168.5 258.3,174.1 258.7,173.7 259.0,173.5 259.3,173.5 259.6,165.9 259.9,135.2 260.2,168.8 260.5,140.6 260.8,142.7 261.1,175.2 261.4,175.2 261.7,139.4 262.0,177.2 262.3,172.3 262.6,162.6 262.9,162.6 263.2,135.2 263.5,181.2 263.8,183.8 264.1,147.8 264.4,147.2 264.7,145.4 265.0,146.2 265.3,167.6 265.6,158.6 265.9,153.2 266.2,170.5 266.5,175.5 266.9,180.0 267.2,175.0 267.5,174.6 267.8,174.2 268.1,172.3 268.4,181.6 268.7,168.1 269.0,157.0 269.3,163.0 269.6,147.2 269.9,111.2 270.2,173.1 270.5,169.8 270.8,177.4 271.1,158.2 271.4,145.4 271.7,163.0 272.0,133.0 272.3,174.6 272.6,171.4 272.9,171.9 273.2,167.3 273.5,172.1 273.8,144.3 274.1,172.3 274.4,141.8 274.8,170.8 275.1,175.0 275.4,140.2 275.7,175.8 276.0,177.0 276.3,144.8 276.6,174.0 276.9,175.9 277.2,170.2 277.5,179.4 277.8,165.9 278.1,158.3 278.4,170.9 278.7,173.1 279.0,146.8 279.3,146.6 279.6,145.5 279.9,169.2 280.2,173.7 280.5,172.6 280.8,174.8 281.1,164.5 281.4,163.6 281.7,177.5 282.0,150.7 282.3,142.8 282.6,175.8 283.0,173.1 283.3,144.1 283.6,175.4 283.9,160.6 284.2,143.4 284.5,135.6 284.8,175.7 285.1,168.5 285.4,146.5 285.7,143.3 286.0,138.5 286.3,170.1 286.6,162.0 286.9,162.5 287.2,173.6 287.5,169.6 287.8,177.9 288.1,144.3 288.4,143.9 288.7,177.8 289.0,172.6 289.3,144.2 289.6,177.1 289.9,169.2 290.2,172.0 290.5,138.4 290.8,175.9 291.2,146.5 291.5,146.6 291.8,150.5 292.1,179.8 292.4,144.7 292.7,145.0 293.0,173.0 293.3,160.6 293.6,169.4 293.9,171.1 294.2,170.7 294.5,173.1 294.8,169.3 295.1,172.8 295.4,168.3 295.7,171.1 296.0,157.6 296.3,175.8 296.6,161.0 296.9,144.6 297.2,145.7 297.5,173.7 297.8,173.1 298.1,171.2 298.4,176.1 298.7,174.9 299.1,162.9 299.4,170.4 299.7,167.1 300.0,147.6 300.3,175.1 300.6,144.0 300.9,175.0 301.2,176.5 301.5,146.2 301.8,145.0 302.1,169.8 302.4,167.4 302.7,139.6 303.0,144.1 303.3,169.3 303.6,145.7 303.9,170.8 304.2,150.7 304.5,144.2 304.8,176.9 305.1,172.2 305.4,170.3 305.7,132.4 306.0,144.7 306.3,176.6 306.6,170.2 306.9,169.2 307.3,145.9 307.6,144.2 307.9,175.1 308.2,171.9 308.5,136.4 308.8,141.5 309.1,144.8 309.4,141.6 309.7,170.0 310.0,145.8 310.3,173.1 310.6,172.4 310.9,146.1 311.2,165.9 311.5,140.7 311.8,174.7 312.1,181.4 312.4,173.9 312.7,142.9 313.0,169.8 313.3,175.5 313.6,105.9 313.9,173.9 314.2,161.1 314.5,173.4 314.8,163.0 315.1,173.9 315.5,170.1 315.8,150.2 316.1,176.8 316.4,174.2 316.7,174.9 317.0,143.7 317.3,171.5 317.6,173.5 317.9,137.3 318.2,172.3 318.5,147.2 318.8,144.1 319.1,150.0 319.4,146.3 319.7,174.0 320.0,177.7 320.3,161.7 320.6,164.9 320.9,160.4 321.2,175.3 321.5,176.3 321.8,171.8 322.1,175.1 322.4,175.3 322.7,178.6 323.0,180.5 323.4,167.7 323.7,165.6 324.0,168.0 324.3,141.1 324.6,172.1 324.9,175.3 325.2,166.1 325.5,144.7 325.8,177.2 326.1,143.1 326.4,141.6 326.7,165.2 327.0,173.0 327.3,171.7 327.6,145.5 327.9,174.9 328.2,173.7 328.5,175.9 328.8,176.5 329.1,143.8 329.4,165.6 329.7,169.7 330.0,171.1 330.3,173.0 330.6,176.9 330.9,147.5 331.2,175.2 331.6,169.7 331.9,176.8 332.2,170.0 332.5,165.3 332.8,174.7 333.1,163.3 333.4,175.1 333.7,146.0 334.0,144.5 334.3,147.7 334.6,140.9 334.9,179.9 335.2,150.0 335.5,160.1 335.8,173.6 336.1,162.2 336.4,141.0 336.7,174.6 337.0,183.4 337.3,173.4 337.6,176.0 337.9,145.9 338.2,173.2 338.5,175.2 338.8,166.7 339.1,160.5 339.4,171.8 339.8,178.0 340.1,146.6 340.4,178.1 340.7,146.3 341.0,142.7 341.3,111.8 341.6,141.0 341.9,172.4 342.2,169.0 342.5,178.4 342.8,169.0 343.1,143.2 343.4,170.3 343.7,167.1 344.0,142.8 344.3,146.4 344.6,136.9 344.9,163.1 345.2,157.3 345.5,173.5 345.8,177.4 346.1,143.8 346.4,173.8 346.7,137.5 347.0,144.0 347.3,172.1 347.7,140.5 348.0,169.6 348.3,138.5 348.6,143.7 348.9,150.3 349.2,175.5 349.5,175.9 349.8,173.8 350.1,144.3 350.4,176.2 350.7,165.7 351.0,178.6 351.3,163.2 351.6,143.5 351.9,144.8 352.2,178.1 352.5,143.9 352.8,165.7 353.1,175.4 353.4,176.0 353.7,163.6 354.0,164.7 354.3,167.8 354.6,170.9 354.9,173.0 355.2,142.4 355.5,178.9 355.9,168.6 356.2,178.6 356.5,177.1 356.8,169.0 357.1,149.8 357.4,168.3 357.7,162.2 358.0,176.7 358.3,176.1 358.6,143.9 358.9,171.7 359.2,145.7 359.5,144.4 359.8,167.0 360.1,169.2 360.4,173.9 360.7,147.0 361.0,147.9 361.3,141.8 361.6,176.0 361.9,172.2 362.2,143.5 362.5,179.2 362.8,170.2 363.1,169.6 363.4,171.1 363.7,175.7 364.1,175.6 364.4,142.1 364.7,175.9 365.0,172.4 365.3,182.7 365.6,172.3 365.9,154.6 366.2,167.3 366.5,165.5 366.8,175.7 367.1,174.6 367.4,173.5 367.7,172.6 368.0,181.8 368.3,173.5 368.6,144.2 368.9,168.2 369.2,158.7 369.5,166.7 369.8,174.3 370.1,142.2 370.4,171.3 370.7,138.2 371.0,177.5 371.3,175.9 371.6,176.8 372.0,171.8 372.3,174.1 372.6,141.8 372.9,146.3 373.2,173.4 373.5,174.3 373.8,174.8 374.1,172.6 374.4,172.8 374.7,163.5 375.0,142.3 375.3,161.3 375.6,174.9 375.9,175.9 376.2,171.0 376.5,144.9 376.8,172.3 377.1,140.5 377.4,174.8 377.7,145.2 378.0,170.7 378.3,137.5 378.6,168.0 378.9,137.9 379.2,178.5 379.5,175.0 379.8,150.8 380.2,175.0 380.5,172.2 380.8,180.2 381.1,171.2 381.4,169.6 381.7,165.7 382.0,174.6 382.3,145.4 382.6,173.9 382.9,145.2 383.2,171.0 383.5,179.1 383.8,176.2 384.1,163.4 384.4,172.6 384.7,171.7 385.0,142.3 385.3,141.3 385.6,174.1 385.9,170.4 386.2,169.7 386.5,153.1 386.8,171.1 387.1,164.3 387.4,139.9 387.7,166.2 388.0,173.3 388.4,147.3 388.7,144.5 389.0,145.2 389.3,139.3 389.6,177.1 389.9,166.0 390.2,139.9 390.5,157.6 390.8,170.8 391.1,145.6 391.4,173.5 391.7,168.7 392.0,175.8 392.3,176.9 392.6,174.7 392.9,143.1 393.2,169.8 393.5,169.3 393.8,162.8 394.1,174.5 394.4,142.0 394.7,174.2 395.0,168.4 395.3,149.9 395.6,112.6 395.9,148.2 396.3,154.9 396.6,153.2 396.9,160.8 397.2,173.4 397.5,176.1 397.8,175.0 398.1,171.4 398.4,151.8 398.7,169.4 399.0,174.7 399.3,170.5 399.6,169.3 399.9,174.7 400.2,173.5 400.5,177.5 400.8,175.7 401.1,168.0 401.4,168.5 401.7,175.3 402.0,137.0 402.3,167.5 402.6,168.4 402.9,158.5 403.2,146.0 403.5,142.1 403.8,145.4 404.1,174.7 404.5,178.2 404.8,175.6 405.1,142.8 405.4,147.2 405.7,171.3 406.0,165.8 406.3,169.5 406.6,169.0 406.9,176.6 407.2,167.9 407.5,142.9 407.8,177.9 408.1,175.6 408.4,158.1 408.7,140.6 409.0,146.1 409.3,172.2 409.6,170.9 409.9,142.5 410.2,163.0 410.5,165.6 410.8,173.4 411.1,172.2 411.4,162.0 411.7,167.3 412.0,138.8 412.3,171.3 412.7,137.7 413.0,171.5 413.3,176.1 413.6,172.6 413.9,179.0 414.2,137.6 414.5,172.0 414.8,159.5 415.1,172.5 415.4,172.8 415.7,145.4 416.0,173.6 416.3,170.0 416.6,135.0 416.9,162.3 417.2,178.0 417.5,168.9 417.8,165.1 418.1,136.2 418.4,144.5 418.7,175.3 419.0,141.4 419.3,168.0 419.6,178.9 419.9,176.6 420.2,143.8 420.6,173.3 420.9,174.7 421.2,135.1 421.5,179.6 421.8,137.2 422.1,181.3 422.4,177.4 422.7,172.0 423.0,160.6 423.3,180.3 423.6,167.2 423.9,145.9 424.2,133.5 424.5,121.7 424.8,142.8 425.1,175.9 425.4,174.1 425.7,169.7 426.0,135.2 426.3,167.1 426.6,138.8 426.9,174.3 427.2,159.0 427.5,168.3 427.8,160.4 428.1,172.9 428.4,172.2 428.8,174.3 429.1,174.3 429.4,175.2 429.7,174.4 430.0,164.2 430.3,142.9 430.6,171.7 430.9,141.6 431.2,178.2 431.5,144.8 431.8,174.1 432.1,172.1 432.4,169.7 432.7,171.1 433.0,158.7 433.3,158.3 433.6,164.3 433.9,144.0 434.2,146.7 434.5,144.2 434.8,175.2 435.1,139.0 435.4,168.2 435.7,169.2 436.0,141.0 436.3,167.1 436.6,157.3 437.0,174.1 437.3,176.8 437.6,110.3 437.9,172.8 438.2,142.8 438.5,171.9 438.8,171.4 439.1,167.7 439.4,172.6 439.7,156.8 440.0,146.0 440.3,146.0 440.6,171.6 440.9,174.2 441.2,145.6 441.5,174.8 441.8,166.0 442.1,156.9 442.4,172.6 442.7,143.7 443.0,147.7 443.3,144.5 443.6,165.0 443.9,177.5 444.2,172.6 444.5,142.9 444.9,173.8 445.2,140.6 445.5,170.2 445.8,146.9 446.1,175.8 446.4,178.3 446.7,170.7 447.0,178.9 447.3,179.1 447.6,177.4 447.9,167.3 448.2,165.6 448.5,170.8 448.8,142.9 449.1,179.5 449.4,145.7 449.7,145.8 450.0,172.6 450.3,128.8 450.6,143.2 450.9,164.9 451.2,161.0 451.5,169.8 451.8,144.1 452.1,173.3 452.4,174.7 452.7,170.6 453.1,168.7 453.4,164.7 453.7,172.8 454.0,156.6 454.3,168.0 454.6,173.2 454.9,107.4 455.2,170.4 455.5,172.5 455.8,142.7 456.1,174.7 456.4,159.1 456.7,139.7 457.0,171.9 457.3,171.5 457.6,134.8 457.9,144.0 458.2,143.4 458.5,172.9 458.8,174.0 459.1,165.5 459.4,137.8 459.7,135.1 460.0,173.8 460.3,169.4 460.6,175.4 460.9,144.9 461.3,168.4 461.6,145.7 461.9,147.2 462.2,148.7 462.5,172.6 462.8,145.2 463.1,135.7 463.4,136.5 463.7,140.7 464.0,143.6 464.3,145.1 464.6,177.8 464.9,178.8 465.2,175.2 465.5,147.1 465.8,142.6 466.1,173.7 466.4,141.0 466.7,170.9 467.0,149.3 467.3,145.1 467.6,173.6 467.9,170.8 468.2,142.4 468.5,177.5 468.8,138.3 469.2,135.5 469.5,172.0 469.8,168.4 470.1,174.7 470.4,175.6 470.7,178.2 471.0,172.0 471.3,176.1 471.6,166.9 471.9,176.8 472.2,167.0 472.5,146.9 472.8,134.6 473.1,150.7 473.4,144.8 473.7,143.9 474.0,142.3 474.3,148.1 474.6,178.6 474.9,141.7 475.2,166.3 475.5,168.9 475.8,168.5 476.1,143.8 476.4,171.3 476.7,176.1 477.0,174.5 477.4,171.6 477.7,142.6 478.0,176.0 478.3,142.1 478.6,139.4 478.9,172.4 479.2,143.4 479.5,146.5 479.8,173.9 480.1,143.6 480.4,165.3 480.7,182.8 481.0,145.7 481.3,163.2 481.6,169.8 481.9,175.0 482.2,176.6 482.5,144.0 482.8,145.6 483.1,145.8 483.4,170.0 483.7,137.8 484.0,170.3 484.3,173.0 484.6,151.7 484.9,160.9 485.2,176.5 485.6,142.0 485.9,144.4 486.2,173.8 486.5,171.8 486.8,144.0 487.1,174.9 487.4,154.8 487.7,173.7 488.0,158.4 488.3,144.9 488.6,143.1 488.9,172.5 489.2,176.5 489.5,176.5 489.8,173.8 490.1,140.5 490.4,162.6 490.7,168.9 491.0,140.6 491.3,171.2 491.6,171.1 491.9,171.4 492.2,178.3 492.5,179.4 492.8,173.4 493.1,173.4 493.5,158.0 493.8,161.2 494.1,138.7 494.4,141.8 494.7,159.5 495.0,161.6 495.3,156.3 495.6,134.1 495.9,140.6 496.2,164.1 496.5,150.9 496.8,157.6 497.1,164.3 497.4,165.0 497.7,142.4 498.0,146.8 498.3,162.7 498.6,163.9 498.9,151.7 499.2,138.8 499.5,137.7 499.8,153.6 500.1,135.6 500.4,167.6 500.7,161.6 501.0,131.6 501.3,152.8 501.7,162.7 502.0,169.3 502.3,169.1 502.6,162.4 502.9,154.5 503.2,168.4 503.5,166.0 503.8,160.5 504.1,170.2 504.4,174.4 504.7,161.2 505.0,146.7 505.3,163.9 505.6,170.2 505.9,165.4 506.2,140.6 506.5,170.6 506.8,161.4 507.1,172.8 507.4,157.2 507.7,171.7 508.0,157.8 508.3,163.1 508.6,137.2 508.9,170.4 509.2,164.5 509.5,152.0 509.9,172.5 510.2,169.8 510.5,129.0 510.8,131.9 511.1,168.1 511.4,168.9 511.7,165.9 512.0,173.6 512.3,146.5 512.6,169.5 512.9,166.7 513.2,169.2 513.5,140.9 513.8,174.7 514.1,140.2 514.4,168.1 514.7,172.4 515.0,145.5 515.3,144.3 515.6,140.8 515.9,171.8 516.2,170.4 516.5,176.8 516.8,174.5 517.1,172.2 517.4,174.8 517.8,139.8 518.1,166.3 518.4,173.3 518.7,175.5 519.0,171.1 519.3,142.7 519.6,170.3 519.9,174.4 520.2,171.3 520.5,166.6 520.8,146.4 521.1,169.1 521.4,141.1 521.7,108.2 522.0,177.0 522.3,168.9 522.6,175.5 522.9,138.8 523.2,170.3 523.5,171.4 523.8,172.8 524.1,176.2 524.4,148.4 524.7,171.6 525.0,137.0 525.3,143.4 525.6,144.9 526.0,143.9 526.3,141.8 526.6,143.9 526.9,141.6 527.2,175.0 527.5,176.0 527.8,176.4 528.1,170.9 528.4,144.6 528.7,143.0 529.0,145.0 529.3,173.4 529.6,175.2 529.9,176.1 530.2,141.3 530.5,177.1 530.8,139.0 531.1,168.1 531.4,177.5 531.7,162.7 532.0,174.4 532.3,172.2 532.6,173.3 532.9,172.2 533.2,162.6 533.5,142.2 533.8,175.5 534.2,141.1 534.5,151.7 534.8,141.3 535.1,169.4 535.4,155.0 535.7,139.3 536.0,174.2 536.3,171.8 536.6,138.5 536.9,140.8 537.2,168.7 537.5,169.0 537.8,164.4 538.1,165.1 538.4,163.8 538.7,160.5 539.0,176.1 539.3,171.3 539.6,139.8 539.9,169.9 540.2,110.2 540.5,174.8 540.8,176.9 541.1,137.2 541.4,172.4 541.7,143.1 542.1,171.1 542.4,161.1 542.7,165.2 543.0,152.8 543.3,138.1 543.6,168.7 543.9,175.1 544.2,174.5 544.5,166.2 544.8,137.7 545.1,159.5 545.4,161.9 545.7,167.3 546.0,157.0 546.3,164.9 546.6,173.1 546.9,139.8 547.2,170.6 547.5,145.2 547.8,169.2 548.1,173.2 548.4,172.6 548.7,173.5 549.0,145.6 549.3,171.2 549.6,173.4 549.9,142.1 550.3,164.7 550.6,170.9 550.9,167.2 551.2,167.2 551.5,169.9 551.8,166.1 552.1,141.4 552.4,141.8 552.7,142.3 553.0,167.9 553.3,170.6 553.6,174.8 553.9,159.5 554.2,163.1 554.5,159.1 554.8,164.2 555.1,141.4 555.4,172.8 555.7,144.9 556.0,140.9 556.3,139.7 556.6,170.3 556.9,160.8 557.2,172.4 557.5,134.4 557.8,167.6 558.1,141.6 558.5,170.3 558.8,177.9 559.1,143.3 559.4,171.3 559.7,140.7 560.0,173.0 560.3,162.9 560.6,164.5 560.9,174.2 561.2,178.9 561.5,173.8 561.8,139.4 562.1,106.3 562.4,109.3 562.7,170.8 563.0,140.0 563.3,171.8 563.6,144.6 563.9,137.1 564.2,168.6 564.5,170.1 564.8,141.2 565.1,171.9 565.4,139.0 565.7,162.4 566.0,174.2 566.4,169.9 566.7,168.8 567.0,164.8 567.3,139.0 567.6,169.4 567.9,173.0 568.2,170.3 568.5,170.7 568.8,167.8 569.1,163.3 569.4,182.6 569.7,147.2 570.0,145.2 570.3,173.9 570.6,144.9 570.9,144.4 571.2,178.3 571.5,142.1 571.8,174.2 572.1,178.6 572.4,174.7 572.7,171.9 573.0,178.2 573.3,174.6 573.6,171.0 573.9,170.9 574.2,139.6 574.6,172.5 574.9,164.7 575.2,142.9 575.5,142.5 575.8,154.9 576.1,162.9 576.4,141.0 576.7,143.4 577.0,176.7 577.3,174.3 577.6,137.0 577.9,137.5 578.2,146.3 578.5,167.7 578.8,176.7 579.1,157.0 579.4,137.6 579.7,170.8 580.0,171.6 580.3,161.9 580.6,175.5 580.9,157.3 581.2,128.2 581.5,163.1 581.8,174.0 582.1,166.5 582.4,139.0 582.8,135.5 583.1,143.5 583.4,172.8 583.7,142.2 584.0,171.5 584.3,167.7 584.6,163.1 584.9,136.4 585.2,159.7 585.5,174.7 585.8,167.0 586.1,150.6 586.4,168.9 586.7,174.6 587.0,153.2 587.3,136.9 587.6,173.9 587.9,166.9 588.2,169.5 588.5,171.7 588.8,172.1 589.1,138.1 589.4,159.0 589.7,170.8 590.0,170.6 590.3,145.6 590.7,156.3 591.0,170.1 591.3,144.4 591.6,169.5 591.9,167.6 592.2,171.7 592.5,142.2 592.8,173.3 593.1,161.6 593.4,170.1 593.7,109.4 594.0,170.4 594.3,171.4 594.6,146.2 594.9,119.1 595.2,167.8 595.5,166.6 595.8,147.1 596.1,168.9 596.4,173.3 596.7,146.7 597.0,169.1 597.3,168.3 597.6,101.7 597.9,169.3 598.2,170.8 598.5,173.9 598.9,171.3 599.2,169.2 599.5,167.2 599.8,142.4 600.1,168.7 600.4,158.4 600.7,139.2 601.0,155.1 601.3,170.4 601.6,144.3 601.9,143.6 602.2,168.2 602.5,173.5 602.8,170.0 603.1,169.6 603.4,167.8 603.7,177.4 604.0,179.4 604.3,167.1 604.6,133.3 604.9,136.9 605.2,146.6 605.5,140.2 605.8,165.6 606.1,177.5 606.4,175.2 606.7,173.6 607.1,171.3 607.4,169.2 607.7,103.8 608.0,167.3 608.3,174.6 608.6,144.4 608.9,144.8 609.2,139.9 609.5,168.6 609.8,123.3 610.1,144.6 610.4,109.0 610.7,166.1 611.0,168.2 611.3,158.1 611.6,169.8 611.9,146.8 612.2,170.5 612.5,132.9 612.8,105.3 613.1,141.1 613.4,144.5 613.7,151.9 614.0,139.8 614.3,142.4 614.6,141.7 615.0,166.9 615.3,174.8 615.6,161.4 615.9,173.1 616.2,138.9 616.5,171.6 616.8,134.3 617.1,177.5 617.4,155.7 617.7,142.9 618.0,157.0 618.3,172.3 618.6,168.9 618.9,174.1 619.2,153.4 619.5,168.7 619.8,156.5 620.1,175.5 620.4,170.5 620.7,137.2 621.0,165.8 621.3,172.6 621.6,142.8 621.9,139.9 622.2,168.5 622.5,166.3 622.8,175.4 623.2,171.9 623.5,140.4 623.8,166.2 624.1,166.2 624.4,145.4 624.7,171.9 625.0,165.1 625.3,142.9 625.6,142.8 625.9,167.6 626.2,182.2 626.5,156.0 626.8,166.4 627.1,152.6 627.4,143.9 627.7,164.9 628.0,173.8 628.3,159.6 628.6,140.0 628.9,167.0 629.2,169.7 629.5,171.0 629.8,167.4 630.1,171.5 630.4,140.5 630.7,163.6 631.0,140.4 631.4,169.3 631.7,169.2 632.0,174.0 632.3,132.6 632.6,173.3 632.9,142.5 633.2,164.5 633.5,143.5 633.8,178.1 634.1,143.8 634.4,143.0 634.7,141.2 635.0,168.4 635.3,175.7 635.6,182.7 635.9,165.0 636.2,169.2 636.5,139.6 636.8,160.6 637.1,174.2 637.4,180.7 637.7,143.8 638.0,144.6 638.3,145.1 638.6,150.2 638.9,167.2 639.3,174.7 639.6,148.1 639.9,145.7 640.2,145.9 640.5,176.8 640.8,173.9 641.1,174.8 641.4,148.9 641.7,168.9 642.0,174.2 642.3,142.8 642.6,175.5 642.9,147.4 643.2,178.7 643.5,144.7 643.8,144.4 644.1,143.2 644.4,169.1 644.7,172.7 645.0,169.2 645.3,138.3 645.6,170.7 645.9,177.6 646.2,144.1 646.5,143.2 646.8,171.9 647.1,171.5 647.5,177.7 647.8,177.3 648.1,179.2 648.4,145.6 648.7,171.6 649.0,146.8 649.3,142.2 649.6,145.4 649.9,174.6 650.2,143.3 650.5,169.2 650.8,175.1 651.1,145.9 651.4,166.6 651.7,180.6 652.0,142.4 652.3,146.6 652.6,171.6 652.9,173.1 653.2,172.3 653.5,144.6 653.8,170.1 654.1,173.5 654.4,142.4 654.7,173.1 655.0,169.3 655.3,171.3 655.7,170.9 656.0,172.8 656.3,173.6 656.6,174.3 656.9,179.7 657.2,145.2 657.5,179.8 657.8,145.6 658.1,171.3 658.4,145.6 658.7,145.5 659.0,138.7 659.3,177.2 659.6,173.2 659.9,139.5 660.2,164.7 660.5,162.3 660.8,167.4 661.1,146.9 661.4,141.0 661.7,143.2 662.0,143.7 662.3,145.8 662.6,173.7 662.9,173.0 663.2,174.1 663.6,146.1 663.9,143.5 664.2,144.7 664.5,175.9 664.8,173.0 665.1,172.6 665.4,170.7 665.7,163.8 666.0,174.3 666.3,165.6 666.6,141.8 666.9,164.6 667.2,149.4 667.5,168.5 667.8,155.8 668.1,159.1 668.4,144.2 668.7,166.0 669.0,161.6 669.3,161.2 669.6,180.7 669.9,165.2 670.2,171.8 670.5,150.4 670.8,161.5 671.1,168.4 671.4,157.8 671.8,157.0 672.1,172.0 672.4,128.7 672.7,174.0 673.0,167.0 673.3,170.0 673.6,168.6 673.9,165.9 674.2,167.4 674.5,169.4 674.8,171.7 675.1,175.7 675.4,181.4 675.7,175.0 676.0,167.6 676.3,173.7 676.6,162.1 676.9,170.3 677.2,148.0 677.5,173.4 677.8,157.4 678.1,135.3 678.4,140.6 678.7,162.9 679.0,143.3 679.3,142.8 679.6,143.4 680.0,165.6 680.3,169.7 680.6,144.6 680.9,153.0 681.2,165.0 681.5,163.0 681.8,164.0 682.1,150.1 682.4,135.3 682.7,161.8 683.0,159.5 683.3,166.5 683.6,166.0 683.9,180.7 684.2,171.4 684.5,164.4 684.8,172.3 685.1,143.2 685.4,160.0 685.7,167.5 686.0,170.3 686.3,137.2 686.6,136.6 686.9,159.0 687.2,176.2 687.5,167.2 687.9,165.8 688.2,163.9 688.5,171.6 688.8,143.9 689.1,175.7 689.4,168.4 689.7,171.8 690.0,171.4 690.3,165.4 690.6,165.2 690.9,138.7 691.2,168.6 691.5,145.5 691.8,174.1 692.1,142.1 692.4,142.1 692.7,148.1 693.0,138.1 693.3,161.4 693.6,177.3 693.9,170.4 694.2,160.4 694.5,173.1 694.8,142.9 695.1,143.2 695.4,172.7 695.7,176.4 696.1,157.8 696.4,170.3 696.7,166.9 697.0,173.3 697.3,170.9 697.6,142.8 697.9,166.2 698.2,176.3 698.5,148.7 698.8,142.4 699.1,155.0 699.4,141.0 699.7,134.6 700.0,175.4"/><polyline fill="none" stroke="#8F2D11" stroke-width="0.8" stroke-linejoin="round" stroke-linecap="round" opacity="0.85" points="60.0,193.0 60.3,196.8 60.6,189.5 60.9,189.5 61.2,162.5 61.5,192.6 61.8,133.1 62.1,195.7 62.4,185.6 62.7,193.3 63.0,189.8 63.3,129.5 63.6,165.0 63.9,194.5 64.3,165.5 64.6,164.4 64.9,133.4 65.2,130.5 65.5,190.1 65.8,163.2 66.1,190.5 66.4,163.6 66.7,191.9 67.0,164.7 67.3,163.1 67.6,161.9 67.9,194.7 68.2,162.8 68.5,195.5 68.8,194.1 69.1,163.5 69.4,162.9 69.7,129.6 70.0,130.2 70.3,130.8 70.6,131.1 70.9,163.4 71.2,194.4 71.5,163.4 71.8,194.0 72.1,163.5 72.4,195.0 72.8,163.8 73.1,194.2 73.4,163.6 73.7,164.9 74.0,129.9 74.3,191.5 74.6,162.9 74.9,160.7 75.2,130.6 75.5,194.7 75.8,164.7 76.1,193.2 76.4,158.5 76.7,166.0 77.0,162.3 77.3,160.6 77.6,124.8 77.9,188.2 78.2,162.0 78.5,163.8 78.8,161.1 79.1,191.5 79.4,191.3 79.7,194.9 80.0,164.9 80.3,127.2 80.6,192.7 80.9,194.3 81.3,161.0 81.6,165.2 81.9,161.0 82.2,191.7 82.5,193.0 82.8,163.7 83.1,163.3 83.4,163.5 83.7,194.0 84.0,160.0 84.3,194.1 84.6,192.8 84.9,163.2 85.2,163.8 85.5,195.1 85.8,194.5 86.1,162.6 86.4,162.7 86.7,155.3 87.0,163.9 87.3,186.1 87.6,163.0 87.9,187.2 88.2,165.5 88.5,195.7 88.8,165.2 89.1,131.9 89.4,163.2 89.8,83.2 90.1,193.6 90.4,163.5 90.7,195.4 91.0,163.1 91.3,193.9 91.6,189.3 91.9,188.6 92.2,184.0 92.5,193.9 92.8,189.5 93.1,193.7 93.4,187.2 93.7,163.7 94.0,165.0 94.3,185.5 94.6,193.2 94.9,192.8 95.2,160.6 95.5,193.0 95.8,188.7 96.1,162.4 96.4,187.0 96.7,189.6 97.0,183.9 97.3,195.3 97.6,193.9 98.0,194.8 98.3,165.0 98.6,165.2 98.9,174.8 99.2,194.0 99.5,192.9 99.8,194.0 100.1,162.8 100.4,194.9 100.7,165.7 101.0,128.2 101.3,158.5 101.6,194.8 101.9,162.3 102.2,163.0 102.5,189.7 102.8,161.9 103.1,124.8 103.4,190.8 103.7,163.3 104.0,165.3 104.3,188.6 104.6,188.1 104.9,194.4 105.2,193.8 105.5,192.0 105.8,194.3 106.1,195.5 106.5,163.9 106.8,187.8 107.1,163.3 107.4,192.6 107.7,192.1 108.0,193.9 108.3,153.1 108.6,183.3 108.9,193.3 109.2,197.0 109.5,164.2 109.8,161.3 110.1,194.0 110.4,165.2 110.7,192.9 111.0,184.7 111.3,193.3 111.6,183.0 111.9,195.2 112.2,163.1 112.5,192.1 112.8,183.7 113.1,162.8 113.4,162.9 113.7,193.9 114.0,188.1 114.3,194.1 114.6,188.8 115.0,192.0 115.3,192.7 115.6,162.1 115.9,161.7 116.2,195.5 116.5,192.2 116.8,193.1 117.1,187.7 117.4,191.4 117.7,162.2 118.0,193.1 118.3,184.5 118.6,190.2 118.9,193.3 119.2,164.5 119.5,164.3 119.8,165.3 120.1,160.9 120.4,192.6 120.7,187.2 121.0,195.2 121.3,190.5 121.6,186.9 121.9,188.0 122.2,161.1 122.5,192.7 122.8,190.9 123.1,179.6 123.5,192.6 123.8,195.8 124.1,192.9 124.4,162.3 124.7,159.4 125.0,185.9 125.3,193.5 125.6,190.2 125.9,163.5 126.2,164.4 126.5,191.8 126.8,182.9 127.1,193.4 127.4,165.4 127.7,196.5 128.0,193.0 128.3,194.5 128.6,163.5 128.9,193.8 129.2,158.4 129.5,189.1 129.8,183.2 130.1,192.9 130.4,194.4 130.7,187.2 131.0,164.3 131.3,193.6 131.7,193.8 132.0,195.6 132.3,184.6 132.6,190.6 132.9,190.5 133.2,162.4 133.5,188.4 133.8,192.8 134.1,156.7 134.4,161.7 134.7,193.0 135.0,196.7 135.3,187.9 135.6,159.9 135.9,192.9 136.2,190.1 136.5,194.7 136.8,192.9 137.1,165.5 137.4,188.5 137.7,164.5 138.0,161.6 138.3,192.1 138.6,189.0 138.9,190.6 139.2,196.1 139.5,192.3 139.8,191.6 140.2,164.0 140.5,197.8 140.8,166.0 141.1,185.3 141.4,189.5 141.7,158.6 142.0,193.0 142.3,191.2 142.6,191.4 142.9,162.3 143.2,185.6 143.5,189.8 143.8,186.5 144.1,164.9 144.4,187.3 144.7,191.3 145.0,188.8 145.3,191.7 145.6,188.9 145.9,163.5 146.2,188.8 146.5,190.6 146.8,165.5 147.1,194.8 147.4,184.5 147.7,161.7 148.0,193.2 148.3,191.7 148.7,195.2 149.0,193.3 149.3,188.3 149.6,190.6 149.9,191.4 150.2,163.5 150.5,187.4 150.8,162.7 151.1,192.8 151.4,197.9 151.7,192.8 152.0,190.4 152.3,188.3 152.6,164.9 152.9,193.3 153.2,192.7 153.5,192.3 153.8,185.2 154.1,186.6 154.4,131.9 154.7,129.9 155.0,163.7 155.3,190.2 155.6,164.1 155.9,194.1 156.2,163.5 156.5,193.8 156.9,161.1 157.2,189.2 157.5,190.7 157.8,162.9 158.1,186.9 158.4,164.6 158.7,195.1 159.0,195.0 159.3,194.8 159.6,179.8 159.9,187.6 160.2,142.8 160.5,164.4 160.8,190.7 161.1,163.6 161.4,165.3 161.7,164.5 162.0,162.7 162.3,163.1 162.6,186.5 162.9,164.1 163.2,189.0 163.5,163.2 163.8,191.3 164.1,193.1 164.4,189.7 164.7,187.0 165.0,187.0 165.4,194.5 165.7,160.9 166.0,189.1 166.3,190.4 166.6,165.3 166.9,197.1 167.2,193.2 167.5,193.9 167.8,164.4 168.1,163.1 168.4,160.2 168.7,186.9 169.0,191.0 169.3,191.0 169.6,191.0 169.9,193.2 170.2,129.8 170.5,191.2 170.8,164.8 171.1,164.0 171.4,194.1 171.7,160.5 172.0,188.4 172.3,163.6 172.6,192.3 172.9,192.8 173.2,192.4 173.5,163.1 173.9,195.9 174.2,193.4 174.5,189.7 174.8,190.7 175.1,190.0 175.4,186.3 175.7,163.9 176.0,164.4 176.3,189.5 176.6,162.1 176.9,194.0 177.2,163.6 177.5,162.8 177.8,189.1 178.1,161.9 178.4,187.9 178.7,193.0 179.0,187.2 179.3,184.7 179.6,185.6 179.9,183.0 180.2,193.5 180.5,193.6 180.8,191.0 181.1,161.1 181.4,191.6 181.7,193.2 182.0,166.0 182.4,163.9 182.7,192.5 183.0,196.5 183.3,163.6 183.6,191.7 183.9,193.3 184.2,191.6 184.5,193.0 184.8,195.6 185.1,194.2 185.4,188.6 185.7,194.8 186.0,195.7 186.3,164.0 186.6,163.5 186.9,161.1 187.2,186.8 187.5,196.4 187.8,196.2 188.1,163.3 188.4,162.5 188.7,188.6 189.0,196.0 189.3,163.4 189.6,190.2 189.9,182.5 190.2,163.0 190.6,186.2 190.9,165.3 191.2,164.4 191.5,192.0 191.8,164.3 192.1,164.6 192.4,193.9 192.7,195.5 193.0,192.7 193.3,186.1 193.6,185.6 193.9,191.2 194.2,194.5 194.5,193.9 194.8,190.9 195.1,196.5 195.4,194.3 195.7,163.8 196.0,162.7 196.3,186.5 196.6,184.7 196.9,193.3 197.2,162.5 197.5,191.8 197.8,194.4 198.1,187.3 198.4,191.5 198.7,193.9 199.1,186.9 199.4,190.2 199.7,195.0 200.0,190.8 200.3,163.4 200.6,191.0 200.9,193.4 201.2,189.7 201.5,163.6 201.8,164.0 202.1,162.9 202.4,192.4 202.7,191.0 203.0,162.2 203.3,164.4 203.6,192.2 203.9,164.9 204.2,192.6 204.5,133.9 204.8,193.7 205.1,162.9 205.4,163.2 205.7,191.6 206.0,191.4 206.3,193.5 206.6,162.9 206.9,193.5 207.2,189.7 207.6,192.8 207.9,163.6 208.2,188.8 208.5,163.3 208.8,195.9 209.1,191.7 209.4,158.5 209.7,129.2 210.0,161.9 210.3,190.5 210.6,157.5 210.9,163.6 211.2,187.6 211.5,161.8 211.8,189.1 212.1,127.2 212.4,164.7 212.7,163.8 213.0,164.6 213.3,164.6 213.6,194.2 213.9,164.5 214.2,191.4 214.5,190.0 214.8,191.2 215.1,192.0 215.4,194.9 215.7,194.8 216.1,164.1 216.4,192.0 216.7,193.6 217.0,191.9 217.3,191.2 217.6,186.3 217.9,162.0 218.2,194.8 218.5,163.0 218.8,195.1 219.1,193.6 219.4,194.6 219.7,158.0 220.0,193.2 220.3,185.7 220.6,188.1 220.9,184.3 221.2,161.9 221.5,192.3 221.8,190.6 222.1,165.2 222.4,194.9 222.7,164.8 223.0,196.1 223.3,187.5 223.6,156.3 223.9,192.0 224.3,163.5 224.6,161.6 224.9,191.9 225.2,191.8 225.5,190.0 225.8,192.0 226.1,192.9 226.4,155.5 226.7,185.3 227.0,184.3 227.3,192.3 227.6,191.1 227.9,165.6 228.2,162.9 228.5,163.1 228.8,164.0 229.1,193.7 229.4,188.8 229.7,190.1 230.0,192.1 230.3,193.3 230.6,194.2 230.9,193.3 231.2,164.6 231.5,193.1 231.8,163.2 232.1,163.6 232.4,182.1 232.8,192.6 233.1,161.0 233.4,195.2 233.7,193.1 234.0,162.0 234.3,194.5 234.6,160.2 234.9,158.3 235.2,156.1 235.5,191.5 235.8,194.7 236.1,191.7 236.4,184.1 236.7,191.5 237.0,164.0 237.3,193.9 237.6,193.8 237.9,194.5 238.2,191.0 238.5,163.7 238.8,163.3 239.1,112.9 239.4,160.4 239.7,190.3 240.0,195.8 240.3,193.2 240.6,193.2 240.9,161.4 241.3,194.2 241.6,182.6 241.9,162.8 242.2,157.3 242.5,191.9 242.8,192.1 243.1,190.1 243.4,189.8 243.7,188.8 244.0,193.2 244.3,189.3 244.6,185.2 244.9,184.4 245.2,196.9 245.5,195.5 245.8,163.9 246.1,191.4 246.4,194.3 246.7,195.4 247.0,194.2 247.3,189.5 247.6,191.9 247.9,189.6 248.2,190.9 248.5,193.4 248.8,192.0 249.1,164.8 249.4,193.9 249.8,164.9 250.1,164.1 250.4,194.0 250.7,185.5 251.0,192.1 251.3,189.0 251.6,193.0 251.9,193.7 252.2,191.2 252.5,189.1 252.8,195.5 253.1,195.4 253.4,195.0 253.7,191.7 254.0,163.6 254.3,160.9 254.6,197.2 254.9,164.7 255.2,193.8 255.5,190.1 255.8,195.0 256.1,164.7 256.4,162.8 256.7,162.1 257.0,184.8 257.3,192.5 257.6,190.3 258.0,131.1 258.3,189.9 258.6,193.9 258.9,163.9 259.2,194.2 259.5,163.1 259.8,188.6 260.1,162.4 260.4,192.5 260.7,160.7 261.0,191.8 261.3,197.3 261.6,164.5 261.9,161.3 262.2,197.6 262.5,190.2 262.8,186.2 263.1,188.3 263.4,161.3 263.7,162.7 264.0,162.5 264.3,191.7 264.6,191.5 264.9,193.1 265.2,165.7 265.5,191.0 265.8,185.3 266.1,191.0 266.5,161.9 266.8,163.3 267.1,197.4 267.4,192.9 267.7,194.0 268.0,190.5 268.3,192.0 268.6,195.6 268.9,191.1 269.2,187.0 269.5,190.9 269.8,194.2 270.1,123.5 270.4,193.4 270.7,192.8 271.0,197.2 271.3,193.0 271.6,162.8 271.9,185.7 272.2,190.2 272.5,191.4 272.8,192.1 273.1,189.6 273.4,189.6 273.7,164.5 274.0,194.9 274.3,194.3 274.6,195.2 275.0,188.0 275.3,192.7 275.6,161.0 275.9,193.7 276.2,164.2 276.5,197.5 276.8,193.1 277.1,164.0 277.4,190.9 277.7,196.8 278.0,191.1 278.3,183.8 278.6,189.5 278.9,164.6 279.2,163.7 279.5,195.7 279.8,162.7 280.1,189.4 280.4,163.9 280.7,192.8 281.0,162.8 281.3,186.7 281.6,191.5 281.9,164.4 282.2,163.0 282.5,161.1 282.8,163.3 283.1,191.2 283.5,161.6 283.8,162.8 284.1,185.4 284.4,193.8 284.7,157.1 285.0,164.3 285.3,164.5 285.6,193.3 285.9,192.7 286.2,194.7 286.5,193.9 286.8,187.0 287.1,185.1 287.4,161.6 287.7,162.3 288.0,193.5 288.3,163.3 288.6,162.8 288.9,193.2 289.2,190.5 289.5,129.4 289.8,192.8 290.1,187.3 290.4,164.2 290.7,194.2 291.0,194.2 291.3,163.8 291.7,164.0 292.0,193.9 292.3,163.3 292.6,195.1 292.9,164.0 293.2,162.5 293.5,185.1 293.8,193.0 294.1,191.3 294.4,189.9 294.7,193.5 295.0,190.0 295.3,192.4 295.6,188.0 295.9,163.8 296.2,183.2 296.5,196.4 296.8,189.6 297.1,192.2 297.4,193.1 297.7,160.7 298.0,192.8 298.3,191.2 298.6,193.0 298.9,196.8 299.2,192.5 299.5,164.5 299.8,186.5 300.2,193.2 300.5,164.4 300.8,191.4 301.1,197.0 301.4,164.0 301.7,195.7 302.0,194.7 302.3,161.3 302.6,189.3 302.9,156.3 303.2,191.4 303.5,190.3 303.8,195.1 304.1,189.6 304.4,161.9 304.7,193.0 305.0,193.4 305.3,189.0 305.6,192.4 305.9,156.3 306.2,163.6 306.5,195.4 306.8,191.6 307.1,195.8 307.4,159.6 307.7,189.8 308.0,197.2 308.3,186.7 308.7,160.8 309.0,162.3 309.3,195.6 309.6,160.9 309.9,187.1 310.2,128.9 310.5,161.3 310.8,190.3 311.1,163.1 311.4,191.3 311.7,159.6 312.0,160.7 312.3,193.4 312.6,162.5 312.9,161.2 313.2,193.8 313.5,195.4 313.8,131.5 314.1,193.1 314.4,188.3 314.7,191.7 315.0,193.1 315.3,165.8 315.6,190.0 315.9,194.2 316.2,195.3 316.5,163.5 316.9,193.7 317.2,132.0 317.5,164.1 317.8,193.9 318.1,156.1 318.4,162.7 318.7,161.6 319.0,194.3 319.3,193.2 319.6,163.1 319.9,191.5 320.2,162.4 320.5,187.3 320.8,192.4 321.1,186.8 321.4,163.6 321.7,161.5 322.0,162.6 322.3,164.4 322.6,163.9 322.9,194.6 323.2,162.5 323.5,162.8 323.8,191.2 324.1,190.8 324.4,163.5 324.7,192.2 325.0,192.4 325.4,192.1 325.7,192.4 326.0,193.9 326.3,158.8 326.6,162.7 326.9,188.0 327.2,189.4 327.5,193.3 327.8,163.1 328.1,163.8 328.4,164.8 328.7,194.4 329.0,194.8 329.3,160.1 329.6,191.0 329.9,189.2 330.2,190.6 330.5,131.1 330.8,165.6 331.1,193.2 331.4,165.6 331.7,165.4 332.0,196.1 332.3,164.1 332.6,186.0 332.9,191.0 333.2,188.0 333.5,192.9 333.9,192.1 334.2,190.9 334.5,193.3 334.8,162.7 335.1,163.2 335.4,162.7 335.7,185.6 336.0,164.6 336.3,190.2 336.6,160.2 336.9,164.7 337.2,164.3 337.5,164.0 337.8,193.3 338.1,162.3 338.4,195.9 338.7,191.2 339.0,189.0 339.3,186.5 339.6,193.0 339.9,164.3 340.2,163.0 340.5,163.4 340.8,194.2 341.1,163.2 341.4,163.2 341.7,190.6 342.0,193.6 342.4,190.9 342.7,164.8 343.0,189.9 343.3,163.6 343.6,193.9 343.9,194.7 344.2,195.5 344.5,195.3 344.8,161.0 345.1,190.1 345.4,183.5 345.7,191.6 346.0,164.7 346.3,162.5 346.6,194.0 346.9,196.1 347.2,192.9 347.5,162.6 347.8,186.9 348.1,188.9 348.4,160.4 348.7,129.2 349.0,164.1 349.3,164.2 349.6,164.4 349.9,164.1 350.2,195.9 350.6,164.3 350.9,161.8 351.2,190.5 351.5,188.9 351.8,191.4 352.1,165.7 352.4,164.1 352.7,161.8 353.0,192.5 353.3,165.0 353.6,195.2 353.9,191.2 354.2,189.6 354.5,189.2 354.8,191.1 355.1,163.8 355.4,162.9 355.7,162.5 356.0,192.3 356.3,165.2 356.6,194.5 356.9,185.8 357.2,184.1 357.5,193.5 357.8,191.2 358.1,193.5 358.4,195.0 358.7,163.1 359.1,190.6 359.4,162.6 359.7,192.9 360.0,191.1 360.3,192.0 360.6,193.9 360.9,162.0 361.2,194.7 361.5,162.7 361.8,164.0 362.1,188.8 362.4,197.5 362.7,196.3 363.0,187.7 363.3,188.4 363.6,163.8 363.9,163.8 364.2,163.0 364.5,193.0 364.8,192.0 365.1,195.4 365.4,164.3 365.7,192.6 366.0,186.2 366.3,161.4 366.6,190.4 366.9,193.1 367.2,193.5 367.6,193.6 367.9,195.2 368.2,192.7 368.5,191.8 368.8,192.5 369.1,190.8 369.4,188.6 369.7,186.6 370.0,193.8 370.3,163.0 370.6,190.6 370.9,195.6 371.2,163.4 371.5,192.9 371.8,192.8 372.1,162.7 372.4,193.2 372.7,193.4 373.0,165.2 373.3,195.3 373.6,163.5 373.9,193.6 374.2,192.5 374.5,191.6 374.8,160.1 375.1,192.2 375.4,185.8 375.7,194.5 376.1,195.3 376.4,193.0 376.7,163.6 377.0,190.6 377.3,164.5 377.6,164.5 377.9,162.5 378.2,187.2 378.5,190.6 378.8,189.9 379.1,193.8 379.4,159.0 379.7,162.2 380.0,162.1 380.3,164.1 380.6,191.9 380.9,162.7 381.2,191.0 381.5,194.6 381.8,194.7 382.1,164.9 382.4,163.9 382.7,163.2 383.0,196.8 383.3,192.6 383.6,197.5 383.9,193.5 384.3,190.1 384.6,161.3 384.9,192.5 385.2,196.5 385.5,161.2 385.8,163.6 386.1,195.0 386.4,193.9 386.7,186.5 387.0,195.0 387.3,190.8 387.6,163.7 387.9,162.8 388.2,163.6 388.5,194.0 388.8,164.1 389.1,195.6 389.4,186.7 389.7,191.7 390.0,187.0 390.3,160.4 390.6,184.9 390.9,190.3 391.2,194.6 391.5,192.8 391.8,191.0 392.1,193.7 392.4,161.9 392.8,163.3 393.1,162.0 393.4,160.1 393.7,191.5 394.0,188.3 394.3,195.1 394.6,192.1 394.9,163.0 395.2,191.9 395.5,193.1 395.8,126.4 396.1,164.4 396.4,185.4 396.7,181.7 397.0,187.8 397.3,163.6 397.6,165.0 397.9,162.9 398.2,191.0 398.5,194.8 398.8,191.0 399.1,193.6 399.4,162.8 399.7,195.7 400.0,189.7 400.3,163.3 400.6,193.4 400.9,162.5 401.3,190.5 401.6,161.8 401.9,191.1 402.2,164.3 402.5,190.0 402.8,192.9 403.1,192.3 403.4,162.9 403.7,162.2 404.0,196.9 404.3,196.0 404.6,196.5 404.9,163.8 405.2,163.0 405.5,189.7 405.8,162.7 406.1,186.8 406.4,194.6 406.7,188.3 407.0,163.5 407.3,191.2 407.6,157.3 407.9,194.3 408.2,193.6 408.5,190.4 408.8,193.4 409.1,182.7 409.4,192.4 409.8,195.5 410.1,162.0 410.4,186.8 410.7,192.7 411.0,192.6 411.3,192.6 411.6,161.9 411.9,163.3 412.2,190.3 412.5,162.2 412.8,162.9 413.1,189.6 413.4,193.7 413.7,191.8 414.0,194.5 414.3,161.1 414.6,163.7 414.9,189.7 415.2,186.7 415.5,191.3 415.8,192.4 416.1,193.5 416.4,192.1 416.7,161.2 417.0,186.2 417.3,164.7 417.6,188.6 418.0,194.2 418.3,161.3 418.6,164.7 418.9,162.4 419.2,161.5 419.5,191.3 419.8,161.9 420.1,160.7 420.4,194.4 420.7,194.7 421.0,194.4 421.3,158.9 421.6,193.5 421.9,191.8 422.2,194.4 422.5,194.3 422.8,193.0 423.1,194.0 423.4,162.9 423.7,190.4 424.0,161.6 424.3,128.2 424.6,186.6 424.9,194.5 425.2,163.3 425.5,193.5 425.8,163.0 426.1,158.2 426.5,188.3 426.8,154.3 427.1,156.0 427.4,186.9 427.7,188.3 428.0,190.4 428.3,193.0 428.6,192.8 428.9,194.3 429.2,193.9 429.5,192.9 429.8,189.5 430.1,190.5 430.4,161.8 430.7,187.4 431.0,166.0 431.3,161.5 431.6,193.4 431.9,191.5 432.2,191.9 432.5,190.9 432.8,163.3 433.1,193.4 433.4,185.0 433.7,165.1 434.0,164.4 434.3,193.7 434.6,163.3 435.0,165.3 435.3,163.0 435.6,162.7 435.9,194.0 436.2,162.5 436.5,189.0 436.8,183.2 437.1,164.9 437.4,194.7 437.7,129.1 438.0,190.4 438.3,195.4 438.6,191.2 438.9,190.8 439.2,192.1 439.5,192.3 439.8,187.6 440.1,196.3 440.4,164.9 440.7,190.8 441.0,193.7 441.3,165.7 441.6,195.0 441.9,190.1 442.2,184.7 442.5,163.5 442.8,192.5 443.1,163.0 443.5,158.2 443.8,189.2 444.1,194.6 444.4,193.1 444.7,162.0 445.0,194.4 445.3,162.8 445.6,190.0 445.9,193.7 446.2,198.0 446.5,164.4 446.8,190.6 447.1,164.4 447.4,194.8 447.7,163.5 448.0,188.6 448.3,189.7 448.6,189.4 448.9,192.3 449.2,194.1 449.5,164.1 449.8,195.0 450.1,165.0 450.4,164.3 450.7,196.5 451.0,187.1 451.3,185.1 451.7,195.7 452.0,193.4 452.3,194.3 452.6,193.3 452.9,161.3 453.2,194.7 453.5,192.9 453.8,193.6 454.1,181.0 454.4,192.5 454.7,190.7 455.0,163.7 455.3,192.9 455.6,193.3 455.9,161.6 456.2,192.7 456.5,187.3 456.8,195.2 457.1,189.1 457.4,193.2 457.7,164.2 458.0,191.9 458.3,162.3 458.6,193.5 458.9,193.6 459.2,188.5 459.5,156.3 459.8,160.4 460.2,163.8 460.5,163.6 460.8,190.0 461.1,194.0 461.4,192.8 461.7,162.3 462.0,164.4 462.3,163.8 462.6,163.0 462.9,194.2 463.2,192.8 463.5,159.1 463.8,195.1 464.1,165.4 464.4,195.2 464.7,164.8 465.0,195.5 465.3,196.3 465.6,196.4 465.9,194.1 466.2,194.4 466.5,189.3 466.8,194.7 467.1,162.3 467.4,192.7 467.7,165.7 468.0,164.2 468.3,190.0 468.7,162.6 469.0,195.3 469.3,163.3 469.6,162.3 469.9,190.5 470.2,195.5 470.5,196.7 470.8,194.3 471.1,191.8 471.4,195.2 471.7,188.0 472.0,164.3 472.3,194.2 472.6,192.1 472.9,191.3 473.2,163.6 473.5,193.2 473.8,193.7 474.1,159.5 474.4,164.1 474.7,195.6 475.0,163.5 475.3,162.8 475.6,192.3 475.9,190.6 476.2,159.2 476.5,193.2 476.9,164.1 477.2,165.0 477.5,193.8 477.8,161.4 478.1,196.2 478.4,195.4 478.7,194.0 479.0,164.2 479.3,132.3 479.6,195.2 479.9,164.0 480.2,163.2 480.5,194.8 480.8,165.2 481.1,196.1 481.4,192.0 481.7,192.2 482.0,192.0 482.3,195.0 482.6,159.0 482.9,132.2 483.2,164.1 483.5,193.7 483.8,164.1 484.1,192.6 484.4,192.2 484.7,188.5 485.0,184.9 485.4,193.2 485.7,193.2 486.0,191.2 486.3,163.8 486.6,194.0 486.9,193.6 487.2,195.0 487.5,184.4 487.8,191.7 488.1,186.7 488.4,160.3 488.7,194.0 489.0,195.0 489.3,192.5 489.6,194.2 489.9,193.0 490.2,163.8 490.5,186.1 490.8,190.4 491.1,196.4 491.4,164.8 491.7,165.2 492.0,194.7 492.3,164.5 492.6,193.0 492.9,192.7 493.2,193.0 493.5,194.7 493.9,186.5 494.2,194.0 494.5,194.3 494.8,183.1 495.1,183.3 495.4,185.8 495.7,189.4 496.0,189.9 496.3,187.2 496.6,186.7 496.9,176.0 497.2,163.4 497.5,162.7 497.8,190.9 498.1,186.6 498.4,192.3 498.7,187.8 499.0,185.7 499.3,162.4 499.6,161.9 499.9,160.5 500.2,191.2 500.5,191.0 500.8,187.9 501.1,190.2 501.4,194.6 501.7,188.9 502.0,164.1 502.4,192.5 502.7,194.4 503.0,186.2 503.3,188.9 503.6,192.8 503.9,186.5 504.2,163.8 504.5,189.9 504.8,160.0 505.1,162.9 505.4,163.6 505.7,191.0 506.0,162.3 506.3,190.3 506.6,193.5 506.9,190.3 507.2,163.8 507.5,183.9 507.8,192.0 508.1,188.0 508.4,190.6 508.7,163.5 509.0,194.3 509.3,189.7 509.6,183.2 509.9,195.0 510.2,192.7 510.6,162.2 510.9,156.0 511.2,195.9 511.5,190.2 511.8,189.7 512.1,164.0 512.4,164.2 512.7,192.0 513.0,187.3 513.3,193.0 513.6,192.3 513.9,193.3 514.2,194.3 514.5,194.8 514.8,165.4 515.1,191.7 515.4,192.7 515.7,163.7 516.0,162.7 516.3,162.9 516.6,195.9 516.9,165.1 517.2,193.9 517.5,191.8 517.8,156.6 518.1,190.8 518.4,163.2 518.7,161.5 519.1,165.0 519.4,164.0 519.7,194.4 520.0,163.9 520.3,163.3 520.6,188.9 520.9,163.1 521.2,191.0 521.5,196.6 521.8,125.2 522.1,193.0 522.4,189.9 522.7,193.2 523.0,194.4 523.3,196.5 523.6,191.8 523.9,191.3 524.2,164.0 524.5,191.9 524.8,192.2 525.1,161.6 525.4,162.1 525.7,193.5 526.0,161.8 526.3,163.2 526.6,193.3 526.9,195.7 527.2,195.9 527.6,165.7 527.9,194.0 528.2,192.4 528.5,164.3 528.8,195.7 529.1,193.7 529.4,164.2 529.7,194.7 530.0,194.6 530.3,162.9 530.6,193.5 530.9,197.1 531.2,194.6 531.5,196.8 531.8,189.4 532.1,195.7 532.4,191.6 532.7,163.0 533.0,191.2 533.3,188.2 533.6,161.4 533.9,191.5 534.2,193.8 534.5,185.8 534.8,194.7 535.1,163.0 535.4,187.7 535.7,164.9 536.1,194.2 536.4,192.4 536.7,159.3 537.0,196.6 537.3,163.8 537.6,192.6 537.9,192.5 538.2,164.0 538.5,186.2 538.8,188.6 539.1,193.1 539.4,191.7 539.7,159.8 540.0,186.1 540.3,127.1 540.6,194.8 540.9,195.3 541.2,160.9 541.5,194.0 541.8,191.3 542.1,196.3 542.4,191.9 542.7,193.7 543.0,193.6 543.3,159.1 543.6,191.6 543.9,193.2 544.3,163.9 544.6,191.2 544.9,186.0 545.2,189.1 545.5,189.3 545.8,191.0 546.1,177.1 546.4,187.8 546.7,192.9 547.0,190.3 547.3,186.7 547.6,164.0 547.9,164.3 548.2,193.6 548.5,197.4 548.8,165.8 549.1,164.0 549.4,165.6 549.7,190.3 550.0,159.8 550.3,188.4 550.6,194.7 550.9,190.1 551.2,188.8 551.5,163.4 551.8,189.9 552.1,187.9 552.4,162.8 552.8,160.0 553.1,188.5 553.4,191.8 553.7,165.7 554.0,187.4 554.3,191.2 554.6,188.4 554.9,192.0 555.2,162.4 555.5,161.7 555.8,192.5 556.1,194.0 556.4,191.3 556.7,163.5 557.0,182.0 557.3,196.0 557.6,163.4 557.9,162.2 558.2,192.5 558.5,162.2 558.8,193.2 559.1,159.4 559.4,163.1 559.7,193.2 560.0,194.0 560.3,190.8 560.6,164.7 560.9,194.3 561.3,164.2 561.6,195.1 561.9,189.3 562.2,163.3 562.5,183.4 562.8,164.1 563.1,162.8 563.4,193.8 563.7,165.1 564.0,164.1 564.3,194.2 564.6,162.3 564.9,164.5 565.2,193.5 565.5,193.7 565.8,195.4 566.1,192.8 566.4,190.0 566.7,189.9 567.0,185.5 567.3,158.7 567.6,164.5 567.9,193.0 568.2,193.0 568.5,191.3 568.8,188.9 569.1,190.7 569.4,165.8 569.8,166.3 570.1,194.8 570.4,197.0 570.7,196.1 571.0,162.7 571.3,191.6 571.6,132.8 571.9,163.3 572.2,196.5 572.5,194.7 572.8,189.4 573.1,194.9 573.4,191.9 573.7,192.6 574.0,192.4 574.3,161.6 574.6,194.8 574.9,192.9 575.2,163.7 575.5,166.5 575.8,185.2 576.1,164.5 576.4,192.6 576.7,95.7 577.0,163.0 577.3,195.7 577.6,162.5 578.0,161.6 578.3,163.6 578.6,185.7 578.9,192.2 579.2,189.6 579.5,161.4 579.8,191.8 580.1,191.7 580.4,164.3 580.7,192.7 581.0,186.0 581.3,188.8 581.6,161.1 581.9,163.0 582.2,189.3 582.5,159.4 582.8,158.6 583.1,163.3 583.4,193.1 583.7,163.2 584.0,193.4 584.3,188.0 584.6,186.7 584.9,164.2 585.2,191.5 585.5,191.2 585.8,193.1 586.1,163.3 586.5,196.6 586.8,195.6 587.1,183.2 587.4,157.6 587.7,196.1 588.0,196.0 588.3,164.8 588.6,192.1 588.9,194.5 589.2,157.8 589.5,190.4 589.8,191.9 590.1,187.0 590.4,193.9 590.7,162.0 591.0,190.6 591.3,163.2 591.6,190.2 591.9,191.9 592.2,163.9 592.5,160.4 592.8,192.0 593.1,190.6 593.4,196.0 593.7,129.7 594.0,191.8 594.3,165.3 594.6,166.6 595.0,189.5 595.3,188.5 595.6,186.3 595.9,162.4 596.2,188.5 596.5,163.8 596.8,193.1 597.1,188.5 597.4,190.8 597.7,187.5 598.0,131.5 598.3,195.3 598.6,190.5 598.9,196.6 599.2,189.9 599.5,192.3 599.8,195.6 600.1,189.1 600.4,187.0 600.7,163.0 601.0,160.5 601.3,191.3 601.6,191.3 601.9,184.8 602.2,189.6 602.5,192.1 602.8,189.5 603.1,162.6 603.5,188.8 603.8,193.2 604.1,162.7 604.4,195.0 604.7,160.5 605.0,188.5 605.3,196.5 605.6,155.8 605.9,161.3 606.2,196.8 606.5,195.2 606.8,163.8 607.1,164.2 607.4,192.5 607.7,129.2 608.0,196.6 608.3,196.9 608.6,195.7 608.9,197.1 609.2,162.4 609.5,149.8 609.8,185.8 610.1,192.7 610.4,189.6 610.7,188.6 611.0,190.8 611.3,188.3 611.7,191.8 612.0,191.0 612.3,194.3 612.6,162.5 612.9,128.4 613.2,195.8 613.5,128.8 613.8,185.8 614.1,161.4 614.4,163.7 614.7,162.3 615.0,162.9 615.3,190.9 615.6,188.0 615.9,193.2 616.2,162.5 616.5,191.6 616.8,188.0 617.1,192.3 617.4,190.0 617.7,192.4 618.0,185.1 618.3,189.0 618.6,191.6 618.9,192.4 619.2,185.5 619.5,160.7 619.8,182.4 620.2,197.2 620.5,191.6 620.8,161.0 621.1,162.5 621.4,162.9 621.7,162.4 622.0,159.0 622.3,187.6 622.6,188.0 622.9,192.7 623.2,193.5 623.5,163.6 623.8,192.8 624.1,187.9 624.4,163.8 624.7,160.8 625.0,188.6 625.3,192.2 625.6,161.7 625.9,190.9 626.2,163.5 626.5,188.7 626.8,190.1 627.1,184.8 627.4,191.3 627.7,191.4 628.0,190.9 628.3,189.9 628.7,193.5 629.0,164.0 629.3,193.9 629.6,192.7 629.9,159.5 630.2,191.6 630.5,190.1 630.8,185.5 631.1,162.7 631.4,189.5 631.7,191.5 632.0,191.1 632.3,159.8 632.6,193.1 632.9,195.8 633.2,188.1 633.5,193.8 633.8,164.4 634.1,164.1 634.4,163.6 634.7,162.2 635.0,189.1 635.3,195.6 635.6,193.5 635.9,162.8 636.2,188.7 636.5,163.1 636.9,189.3 637.2,192.4 637.5,192.6 637.8,163.8 638.1,193.6 638.4,195.2 638.7,185.6 639.0,189.7 639.3,189.7 639.6,164.0 639.9,163.0 640.2,163.9 640.5,194.1 640.8,190.8 641.1,192.1 641.4,164.5 641.7,185.1 642.0,191.5 642.3,195.0 642.6,164.4 642.9,193.1 643.2,131.1 643.5,193.7 643.8,163.5 644.1,162.3 644.4,193.9 644.7,164.5 645.0,164.4 645.4,191.9 645.7,191.8 646.0,193.7 646.3,194.3 646.6,163.1 646.9,189.0 647.2,163.3 647.5,192.8 647.8,193.7 648.1,195.4 648.4,164.9 648.7,190.9 649.0,194.0 649.3,132.0 649.6,163.6 649.9,191.9 650.2,133.0 650.5,191.0 650.8,192.8 651.1,163.1 651.4,193.3 651.7,195.0 652.0,161.3 652.3,194.0 652.6,190.5 652.9,194.3 653.2,192.6 653.5,194.9 653.9,191.0 654.2,189.3 654.5,163.9 654.8,191.7 655.1,189.8 655.4,191.1 655.7,161.2 656.0,163.4 656.3,166.0 656.6,193.2 656.9,194.3 657.2,162.9 657.5,163.1 657.8,163.0 658.1,193.5 658.4,163.3 658.7,163.6 659.0,164.2 659.3,164.3 659.6,193.0 659.9,196.4 660.2,163.4 660.5,187.7 660.8,191.4 661.1,191.9 661.4,162.1 661.7,161.2 662.0,131.0 662.4,162.8 662.7,165.4 663.0,191.7 663.3,194.3 663.6,195.4 663.9,191.5 664.2,190.3 664.5,163.5 664.8,192.4 665.1,196.7 665.4,192.4 665.7,190.2 666.0,163.4 666.3,190.3 666.6,161.2 666.9,189.2 667.2,189.0 667.5,190.3 667.8,186.5 668.1,185.4 668.4,163.9 668.7,189.3 669.0,189.6 669.3,191.7 669.6,192.6 669.9,187.7 670.2,195.3 670.6,185.1 670.9,190.6 671.2,191.3 671.5,187.6 671.8,190.1 672.1,165.2 672.4,162.4 672.7,192.7 673.0,188.0 673.3,192.4 673.6,188.3 673.9,191.7 674.2,185.3 674.5,189.7 674.8,162.8 675.1,192.5 675.4,159.2 675.7,194.1 676.0,164.5 676.3,194.1 676.6,189.6 676.9,164.6 677.2,190.7 677.5,194.0 677.8,195.1 678.1,161.9 678.4,163.9 678.7,193.6 679.1,158.8 679.4,194.7 679.7,195.2 680.0,187.7 680.3,190.9 680.6,164.0 680.9,185.5 681.2,188.4 681.5,188.4 681.8,188.1 682.1,194.2 682.4,193.4 682.7,184.0 683.0,163.4 683.3,160.4 683.6,190.3 683.9,193.2 684.2,195.8 684.5,188.5 684.8,164.1 685.1,195.2 685.4,185.3 685.7,189.7 686.0,192.1 686.3,157.3 686.6,162.3 686.9,187.6 687.2,194.2 687.6,188.2 687.9,187.8 688.2,162.7 688.5,194.5 688.8,158.5 689.1,197.6 689.4,187.8 689.7,163.7 690.0,192.6 690.3,189.3 690.6,194.9 690.9,160.5 691.2,191.2 691.5,163.3 691.8,193.3 692.1,163.0 692.4,130.7 692.7,190.2 693.0,191.9 693.3,188.4 693.6,189.7 693.9,195.0 694.2,188.5 694.5,191.8 694.8,194.7 695.1,162.0 695.4,187.8 695.7,161.9 696.1,188.9 696.4,188.7 696.7,192.5 697.0,192.7 697.3,194.5 697.6,193.4 697.9,195.9 698.2,192.8 698.5,183.6 698.8,162.6 699.1,193.4 699.4,161.1 699.7,194.3 700.0,194.8"/><text class="tk" x="14" y="130" transform="rotate(-90,14,130)" text-anchor="middle">ms</text><text class="tk" x="380" y="232" text-anchor="middle">frame index →</text><line x1="480" y1="34" x2="500" y2="34" stroke="#73706A" stroke-width="1.5"/><text class="lg" x="506" y="38">image_proc (median 12.25)</text><line x1="480" y1="50" x2="500" y2="50" stroke="#8F2D11" stroke-width="1.5"/><text class="lg" x="506" y="54">gst_adapt_node (median 4.80)</text></svg>