<svg xmlns="http://www.w3.org/2000/svg" viewBox="0 0 640 200" role="img" aria-label="Latency distribution (min, p5, median, p95, max) — ms" style="max-width:100%;height:auto;background:#111827;border-radius:12px"><style>text{font-family:-apple-system,system-ui,sans-serif;fill:#e2e8f0}.ax{stroke:#64748b;stroke-width:1;opacity:.25}.tk{fill:#64748b;font-size:10px}.ti{font-size:13px;font-weight:600}.lg{font-size:11px}</style><text x="40" y="22" class="ti">Latency distribution (min, p5, median, p95, max) — ms</text><line class="ax" x1="160" y1="170" x2="610" y2="170"/><line class="ax" x1="160" y1="166" x2="160" y2="174"/><text class="tk" x="160" y="186" text-anchor="middle">0</text><line class="ax" x1="272" y1="166" x2="272" y2="174"/><text class="tk" x="272" y="186" text-anchor="middle">12</text><line class="ax" x1="385" y1="166" x2="385" y2="174"/><text class="tk" x="385" y="186" text-anchor="middle">24</text><line class="ax" x1="498" y1="166" x2="498" y2="174"/><text class="tk" x="498" y="186" text-anchor="middle">36</text><line class="ax" x1="610" y1="166" x2="610" y2="174"/><text class="tk" x="610" y="186" text-anchor="middle">48</text><text class="tk" x="385" y="198" text-anchor="middle">ms</text><text x="10" y="64" class="lg">image_proc</text><line x1="221.3" y1="60" x2="576.7" y2="60" stroke="#f87171" stroke-opacity=".35" stroke-width="1.5"/><rect x="241.2" y="48" width="121.7" height="24" fill="#f87171" fill-opacity=".2" stroke="#f87171" stroke-width="1.2" rx="3"/><line x1="273.9" y1="47" x2="273.9" y2="73" stroke="#f87171" stroke-width="2.4"/><text class="tk" x="221.3" y="42" text-anchor="middle">6.6</text><text class="tk" x="576.7" y="42" text-anchor="middle">44.8</text><text class="tk" x="273.9" y="86" text-anchor="middle">median 12.3</text><text x="10" y="114" class="lg">gst_adapt_node</text><line x1="178.1" y1="110" x2="527.2" y2="110" stroke="#22d3ee" stroke-opacity=".35" stroke-width="1.5"/><rect x="185.7" y="98" width="108.6" height="24" fill="#22d3ee" fill-opacity=".2" stroke="#22d3ee" stroke-width="1.2" rx="3"/><line x1="204.6" y1="97" x2="204.6" y2="123" stroke="#22d3ee" stroke-width="2.4"/><text class="tk" x="178.1" y="92" text-anchor="middle">1.9</text><text class="tk" x="527.2" y="92" text-anchor="middle">39.5</text><text class="tk" x="204.6" y="136" text-anchor="middle">median 4.8</text></svg>