<svg xmlns="http://www.w3.org/2000/svg" viewBox="0 0 640 260" role="img" aria-label="Per-frame latency over 3-minute run (ms)" style="max-width:100%;height:auto;background:#111827;border-radius:12px"><style>text{font-family:-apple-system,system-ui,sans-serif;fill:#e2e8f0}.ax{stroke:#64748b;stroke-width:1;opacity:.25}.tk{fill:#64748b;font-size:10px}.ti{font-size:13px;font-weight:600}.lg{font-size:11px}</style><text x="40" y="18" class="ti">Per-frame latency over 3-minute run (ms)</text><line class="ax" x1="40" y1="220.0" x2="620" y2="220.0"/><text class="tk" x="34" y="223.0" text-anchor="end">0</text><line class="ax" x1="40" y1="172.5" x2="620" y2="172.5"/><text class="tk" x="34" y="175.5" text-anchor="end">12</text><line class="ax" x1="40" y1="125.0" x2="620" y2="125.0"/><text class="tk" x="34" y="128.0" text-anchor="end">25</text><line class="ax" x1="40" y1="77.5" x2="620" y2="77.5"/><text class="tk" x="34" y="80.5" text-anchor="end">37</text><line class="ax" x1="40" y1="30.0" x2="620" y2="30.0"/><text class="tk" x="34" y="33.0" text-anchor="end">49</text><polyline fill="none" stroke="#f87171" stroke-width="1.6" stroke-linejoin="round" stroke-linecap="round" points="40.0,169.6 40.3,183.3 40.6,171.8 40.8,174.3 41.1,184.5 41.4,174.2 41.7,146.2 41.9,143.5 42.2,167.5 42.5,142.0 42.8,164.7 43.0,180.8 43.3,144.0 43.6,173.1 43.9,151.3 44.1,143.0 44.4,144.1 44.7,187.6 45.0,144.4 45.2,181.8 45.5,174.3 45.8,179.9 46.1,175.2 46.3,183.9 46.6,188.4 46.9,141.1 47.2,139.1 47.4,145.7 47.7,175.7 48.0,138.8 48.3,164.4 48.5,145.0 48.8,131.5 49.1,143.5 49.4,180.5 49.6,144.5 49.9,179.2 50.2,189.5 50.5,140.2 50.7,167.0 51.0,173.9 51.3,143.0 51.6,185.8 51.8,185.3 52.1,183.0 52.4,177.1 52.7,134.0 52.9,176.5 53.2,137.8 53.5,136.7 53.8,131.7 54.0,141.5 54.3,142.6 54.6,144.8 54.9,143.2 55.1,148.8 55.4,144.1 55.7,145.5 56.0,138.3 56.2,139.5 56.5,130.3 56.8,146.2 57.1,143.3 57.3,139.9 57.6,143.0 57.9,178.7 58.2,189.7 58.4,102.8 58.7,173.2 59.0,163.5 59.3,170.8 59.5,143.9 59.8,141.6 60.1,144.7 60.4,178.7 60.6,145.7 60.9,143.5 61.2,167.8 61.5,134.9 61.7,120.9 62.0,144.8 62.3,178.8 62.6,169.9 62.8,181.7 63.1,87.9 63.4,169.8 63.7,191.1 63.9,142.5 64.2,168.9 64.5,167.9 64.8,138.0 65.0,183.2 65.3,137.8 65.6,142.8 65.9,137.8 66.2,143.3 66.4,139.7 66.7,183.1 67.0,115.1 67.3,121.8 67.5,131.7 67.8,189.0 68.1,181.9 68.4,182.2 68.6,180.3 68.9,172.9 69.2,137.4 69.5,184.6 69.7,170.1 70.0,173.5 70.3,153.1 70.6,176.1 70.8,181.9 71.1,171.8 71.4,181.4 71.7,169.9 71.9,139.5 72.2,180.8 72.5,168.8 72.8,99.1 73.0,160.4 73.3,140.6 73.6,147.5 73.9,139.5 74.1,179.4 74.4,176.1 74.7,189.7 75.0,175.3 75.2,155.6 75.5,182.1 75.8,173.7 76.1,172.1 76.3,179.6 76.6,176.3 76.9,141.0 77.2,98.7 77.4,136.4 77.7,176.0 78.0,137.0 78.3,136.3 78.5,174.0 78.8,142.7 79.1,100.9 79.4,159.0 79.6,174.9 79.9,140.1 80.2,179.7 80.5,176.6 80.7,132.4 81.0,133.6 81.3,130.3 81.6,176.4 81.8,183.8 82.1,145.5 82.4,144.5 82.7,143.8 82.9,183.2 83.2,176.3 83.5,174.5 83.8,130.1 84.0,167.7 84.3,143.0 84.6,183.6 84.9,179.1 85.1,183.1 85.4,177.1 85.7,178.9 86.0,185.2 86.2,167.0 86.5,188.4 86.8,156.8 87.1,188.6 87.3,185.6 87.6,181.7 87.9,169.2 88.2,144.8 88.4,143.0 88.7,180.4 89.0,161.9 89.3,173.4 89.5,150.8 89.8,173.6 90.1,176.3 90.4,140.6 90.7,144.7 90.9,177.4 91.2,139.3 91.5,176.2 91.8,168.8 92.0,177.7 92.3,127.7 92.6,179.0 92.9,165.1 93.1,166.5 93.4,173.7 93.7,167.6 94.0,141.8 94.2,140.0 94.5,172.8 94.8,175.5 95.1,164.9 95.3,180.4 95.6,175.4 95.9,159.0 96.2,167.4 96.4,137.4 96.7,145.1 97.0,169.5 97.3,142.1 97.5,175.0 97.8,139.1 98.1,181.5 98.4,140.5 98.6,141.5 98.9,171.2 99.2,182.9 99.5,167.0 99.7,133.9 100.0,144.1 100.3,169.8 100.6,157.6 100.8,180.6 101.1,147.8 101.4,181.5 101.7,139.6 101.9,174.5 102.2,181.7 102.5,162.3 102.8,127.2 103.0,135.0 103.3,156.4 103.6,182.6 103.9,182.5 104.1,164.1 104.4,174.9 104.7,178.7 105.0,179.4 105.2,177.7 105.5,148.4 105.8,175.2 106.1,166.1 106.3,133.0 106.6,163.3 106.9,151.8 107.2,139.5 107.4,144.1 107.7,152.9 108.0,184.5 108.3,166.9 108.5,176.3 108.8,168.3 109.1,169.5 109.4,184.1 109.6,138.7 109.9,175.8 110.2,173.6 110.5,186.6 110.7,135.0 111.0,172.6 111.3,172.3 111.6,132.8 111.8,181.4 112.1,144.0 112.4,174.9 112.7,184.2 112.9,181.7 113.2,148.2 113.5,164.3 113.8,179.8 114.0,122.5 114.3,140.9 114.6,144.1 114.9,178.4 115.1,146.9 115.4,177.4 115.7,137.6 116.0,114.8 116.3,182.9 116.5,137.4 116.8,181.7 117.1,156.6 117.4,180.3 117.6,171.1 117.9,184.5 118.2,172.9 118.5,172.4 118.7,140.1 119.0,171.7 119.3,171.4 119.6,180.8 119.8,178.6 120.1,148.5 120.4,182.1 120.7,180.1 120.9,171.2 121.2,176.5 121.5,177.4 121.8,178.1 122.0,172.5 122.3,128.3 122.6,176.6 122.9,185.9 123.1,180.1 123.4,180.2 123.7,176.7 124.0,179.2 124.2,182.6 124.5,146.2 124.8,166.0 125.1,170.8 125.3,160.6 125.6,172.9 125.9,138.8 126.2,140.7 126.4,176.9 126.7,147.4 127.0,180.0 127.3,138.7 127.5,180.9 127.8,171.2 128.1,137.1 128.4,174.7 128.6,179.4 128.9,170.4 129.2,170.6 129.5,176.3 129.7,187.9 130.0,178.1 130.3,126.4 130.6,184.2 130.8,47.3 131.1,143.2 131.4,176.5 131.7,181.7 131.9,180.1 132.2,135.8 132.5,180.9 132.8,133.6 133.0,163.6 133.3,171.9 133.6,169.3 133.9,142.7 134.1,183.5 134.4,142.8 134.7,176.9 135.0,177.0 135.2,168.9 135.5,185.4 135.8,133.8 136.1,160.1 136.3,170.5 136.6,180.7 136.9,137.8 137.2,179.8 137.4,187.2 137.7,183.0 138.0,145.7 138.3,136.8 138.5,155.7 138.8,169.0 139.1,173.6 139.4,173.1 139.6,186.3 139.9,142.9 140.2,177.3 140.5,181.4 140.7,179.9 141.0,144.1 141.3,168.9 141.6,169.7 141.9,176.2 142.1,139.8 142.4,188.6 142.7,144.8 143.0,138.4 143.2,179.7 143.5,152.2 143.8,180.4 144.1,165.1 144.3,170.6 144.6,159.5 144.9,181.4 145.2,183.6 145.4,174.9 145.7,138.3 146.0,173.7 146.3,190.6 146.5,185.4 146.8,174.3 147.1,143.7 147.4,160.2 147.6,165.7 147.9,155.6 148.2,165.0 148.5,160.5 148.7,150.5 149.0,184.8 149.3,145.2 149.6,176.2 149.8,181.2 150.1,177.9 150.4,181.1 150.7,186.5 150.9,145.4 151.2,182.4 151.5,145.7 151.8,183.6 152.0,180.7 152.3,171.0 152.6,173.5 152.9,174.2 153.1,143.7 153.4,145.2 153.7,176.8 154.0,143.3 154.2,185.4 154.5,148.2 154.8,143.8 155.1,172.7 155.3,172.3 155.6,178.7 155.9,138.2 156.2,147.8 156.4,143.8 156.7,179.1 157.0,181.9 157.3,141.0 157.5,177.7 157.8,148.8 158.1,173.1 158.4,167.1 158.6,185.0 158.9,136.8 159.2,177.1 159.5,180.6 159.7,184.9 160.0,183.6 160.3,177.9 160.6,160.1 160.8,170.4 161.1,165.3 161.4,181.1 161.7,182.9 161.9,186.9 162.2,165.1 162.5,184.6 162.8,189.0 163.0,189.4 163.3,177.7 163.6,166.5 163.9,167.6 164.1,173.0 164.4,185.1 164.7,182.5 165.0,175.7 165.2,171.2 165.5,180.5 165.8,185.4 166.1,172.1 166.4,164.8 166.6,174.8 166.9,178.4 167.2,183.2 167.5,184.4 167.7,179.7 168.0,173.9 168.3,183.2 168.6,184.6 168.8,175.9 169.1,177.6 169.4,172.9 169.7,142.9 169.9,186.1 170.2,182.7 170.5,143.2 170.8,182.4 171.0,142.1 171.3,184.8 171.6,144.0 171.9,176.3 172.1,180.6 172.4,176.4 172.7,139.2 173.0,180.9 173.2,184.4 173.5,180.3 173.8,146.8 174.1,183.8 174.3,172.1 174.6,141.6 174.9,172.3 175.2,144.3 175.4,141.6 175.7,144.9 176.0,145.5 176.3,176.0 176.5,141.8 176.8,143.2 177.1,161.8 177.4,178.4 177.6,172.0 177.9,101.5 178.2,176.2 178.5,151.3 178.7,142.4 179.0,181.5 179.3,145.2 179.6,185.5 179.8,173.5 180.1,171.5 180.4,142.5 180.7,180.4 180.9,186.2 181.2,183.6 181.5,181.9 181.8,186.3 182.0,174.4 182.3,153.4 182.6,177.7 182.9,144.1 183.1,168.3 183.4,180.4 183.7,143.4 184.0,183.2 184.2,190.0 184.5,183.6 184.8,140.5 185.1,182.7 185.3,164.4 185.6,158.2 185.9,162.2 186.2,131.9 186.4,180.9 186.7,169.3 187.0,144.5 187.3,171.5 187.5,181.6 187.8,177.4 188.1,165.3 188.4,136.8 188.6,141.2 188.9,142.5 189.2,139.8 189.5,177.6 189.7,177.0 190.0,172.6 190.3,178.3 190.6,180.9 190.8,137.1 191.1,170.3 191.4,164.8 191.7,178.0 192.0,152.7 192.2,147.2 192.5,147.0 192.8,146.8 193.1,148.8 193.3,141.9 193.6,168.3 193.9,166.4 194.2,141.1 194.4,142.5 194.7,146.3 195.0,142.4 195.3,177.1 195.5,183.2 195.8,183.9 196.1,182.0 196.4,158.6 196.6,174.3 196.9,134.5 197.2,175.9 197.5,140.5 197.7,148.2 198.0,149.9 198.3,129.7 198.6,134.6 198.8,123.7 199.1,179.3 199.4,179.2 199.7,181.1 199.9,170.9 200.2,184.5 200.5,182.8 200.8,169.9 201.0,179.9 201.3,184.1 201.6,175.4 201.9,181.4 202.1,146.4 202.4,147.5 202.7,170.3 203.0,186.3 203.2,179.7 203.5,182.1 203.8,150.4 204.1,182.7 204.3,158.9 204.6,173.1 204.9,137.6 205.2,183.4 205.4,180.8 205.7,173.4 206.0,179.4 206.3,174.6 206.5,183.5 206.8,141.6 207.1,167.8 207.4,165.1 207.6,181.6 207.9,183.6 208.2,179.9 208.5,177.7 208.7,146.8 209.0,179.5 209.3,186.3 209.6,175.3 209.8,178.0 210.1,174.0 210.4,140.9 210.7,146.5 210.9,186.9 211.2,186.9 211.5,146.8 211.8,146.0 212.0,148.8 212.3,146.8 212.6,131.7 212.9,161.1 213.1,169.0 213.4,185.5 213.7,142.8 214.0,146.3 214.2,169.3 214.5,144.1 214.8,146.5 215.1,178.7 215.3,169.3 215.6,138.1 215.9,137.3 216.2,143.7 216.4,143.7 216.7,180.7 217.0,181.1 217.3,186.3 217.6,185.6 217.8,141.1 218.1,164.7 218.4,172.0 218.7,175.4 218.9,181.4 219.2,180.8 219.5,175.2 219.8,182.4 220.0,181.7 220.3,181.6 220.6,181.6 220.9,172.0 221.1,133.3 221.4,175.7 221.7,140.0 222.0,142.7 222.2,183.7 222.5,183.8 222.8,138.6 223.1,186.2 223.3,180.1 223.6,167.8 223.9,167.8 224.2,133.3 224.4,191.2 224.7,194.6 225.0,149.1 225.3,148.4 225.5,146.1 225.8,147.1 226.1,174.1 226.4,162.8 226.6,155.9 226.9,177.8 227.2,184.1 227.5,189.7 227.7,183.4 228.0,183.0 228.3,182.4 228.6,180.0 228.8,191.8 229.1,174.7 229.4,160.7 229.7,168.3 229.9,148.4 230.2,103.0 230.5,181.1 230.8,176.9 231.0,186.5 231.3,162.3 231.6,146.2 231.9,168.3 232.1,130.5 232.4,182.9 232.7,178.9 233.0,179.6 233.2,173.7 233.5,179.8 233.8,144.8 234.1,180.0 234.3,141.6 234.6,178.2 234.9,183.5 235.2,139.6 235.4,184.4 235.7,185.9 236.0,145.3 236.3,182.2 236.5,184.6 236.8,177.4 237.1,189.0 237.4,171.9 237.6,162.4 237.9,178.3 238.2,181.1 238.5,147.9 238.7,147.6 239.0,146.3 239.3,176.1 239.6,181.9 239.8,180.4 240.1,183.1 240.4,170.2 240.7,169.0 240.9,186.6 241.2,152.8 241.5,142.9 241.8,184.4 242.1,181.1 242.3,144.5 242.6,183.9 242.9,165.3 243.2,143.7 243.4,133.8 243.7,184.3 244.0,175.2 244.3,147.5 244.5,143.5 244.8,137.4 245.1,177.3 245.4,167.1 245.6,167.7 245.9,181.6 246.2,176.6 246.5,187.1 246.7,144.7 247.0,144.2 247.3,187.0 247.6,180.4 247.8,144.6 248.1,186.1 248.4,176.1 248.7,179.7 248.9,137.3 249.2,184.6 249.5,147.5 249.8,147.7 250.0,152.5 250.3,189.5 250.6,145.3 250.9,145.7 251.1,180.9 251.4,165.3 251.7,176.4 252.0,178.6 252.2,178.1 252.5,181.1 252.8,176.3 253.1,180.7 253.3,175.0 253.6,178.5 253.9,161.5 254.2,184.4 254.4,165.8 254.7,145.2 255.0,146.5 255.3,181.8 255.5,181.0 255.8,178.6 256.1,184.8 256.4,183.4 256.6,168.2 256.9,177.7 257.2,173.5 257.5,148.9 257.7,183.5 258.0,144.3 258.3,183.4 258.6,185.4 258.8,147.1 259.1,145.6 259.4,176.9 259.7,173.9 259.9,138.8 260.2,144.5 260.5,176.2 260.8,146.5 261.0,178.2 261.3,152.9 261.6,144.6 261.9,185.9 262.1,179.9 262.4,177.5 262.7,129.8 263.0,145.3 263.2,185.5 263.5,177.4 263.8,176.1 264.1,146.8 264.3,144.6 264.6,183.6 264.9,179.6 265.2,134.8 265.4,141.2 265.7,145.4 266.0,141.3 266.3,177.1 266.5,146.6 266.8,181.1 267.1,180.2 267.4,147.0 267.7,172.0 267.9,140.2 268.2,183.1 268.5,191.5 268.8,182.0 269.0,143.0 269.3,176.9 269.6,184.1 269.9,96.3 270.1,182.1 270.4,165.9 270.7,181.4 271.0,168.3 271.2,182.1 271.5,177.3 271.8,152.2 272.1,185.8 272.3,182.4 272.6,183.4 272.9,144.0 273.2,179.0 273.4,181.6 273.7,135.9 274.0,180.1 274.3,148.4 274.5,144.5 274.8,152.0 275.1,147.2 275.4,182.2 275.6,186.9 275.9,166.6 276.2,170.7 276.5,165.1 276.7,183.8 277.0,185.1 277.3,179.4 277.6,183.5 277.8,183.8 278.1,188.0 278.4,190.4 278.7,174.3 278.9,171.6 279.2,174.7 279.5,140.8 279.8,179.8 280.0,183.8 280.3,172.2 280.6,145.3 280.9,186.2 281.1,143.2 281.4,141.4 281.7,171.1 282.0,181.0 282.2,179.3 282.5,146.3 282.8,183.3 283.1,181.9 283.3,184.5 283.6,185.3 283.9,144.1 284.2,171.6 284.4,176.8 284.7,178.5 285.0,180.9 285.3,185.9 285.5,148.8 285.8,183.8 286.1,176.7 286.4,185.7 286.6,177.1 286.9,171.2 287.2,183.1 287.5,168.7 287.7,183.6 288.0,146.9 288.3,145.0 288.6,149.1 288.8,140.5 289.1,189.6 289.4,151.9 289.7,164.6 289.9,181.6 290.2,167.3 290.5,140.6 290.8,183.0 291.0,194.0 291.3,181.4 291.6,184.8 291.9,146.8 292.1,181.2 292.4,183.8 292.7,173.0 293.0,165.2 293.3,179.5 293.5,187.3 293.8,147.7 294.1,187.4 294.4,147.3 294.6,142.7 294.9,103.8 295.2,140.6 295.5,180.1 295.7,175.9 296.0,187.8 296.3,175.9 296.6,143.3 296.8,177.5 297.1,173.5 297.4,142.8 297.7,147.4 297.9,135.4 298.2,168.5 298.5,161.1 298.8,181.6 299.0,186.4 299.3,144.1 299.6,181.9 299.9,136.2 300.1,144.4 300.4,179.8 300.7,139.9 301.0,176.7 301.2,137.5 301.5,144.0 301.8,152.4 302.1,184.0 302.3,184.5 302.6,181.9 302.9,144.8 303.2,184.9 303.4,171.8 303.7,188.0 304.0,168.6 304.3,143.7 304.5,145.4 304.8,187.4 305.1,144.3 305.4,171.7 305.6,184.0 305.9,184.7 306.2,169.0 306.5,170.5 306.7,174.4 307.0,178.3 307.3,180.9 307.6,142.4 307.8,188.4 308.1,175.4 308.4,188.0 308.7,186.1 308.9,175.9 309.2,151.7 309.5,175.0 309.8,167.3 310.0,185.6 310.3,184.8 310.6,144.3 310.9,179.2 311.1,146.5 311.4,144.8 311.7,173.4 312.0,176.1 312.2,182.1 312.5,148.1 312.8,149.3 313.1,141.6 313.3,184.7 313.6,179.9 313.9,143.8 314.2,188.8 314.4,177.4 314.7,176.7 315.0,178.5 315.3,184.3 315.5,184.2 315.8,142.0 316.1,184.6 316.4,180.1 316.6,193.1 316.9,180.1 317.2,157.7 317.5,173.7 317.8,171.4 318.0,184.4 318.3,183.0 318.6,181.5 318.9,180.5 319.1,192.0 319.4,181.6 319.7,144.6 320.0,174.9 320.2,163.0 320.5,173.0 320.8,182.6 321.1,142.1 321.3,178.8 321.6,137.0 321.9,186.6 322.2,184.5 322.4,185.8 322.7,179.4 323.0,182.3 323.3,141.6 323.5,147.3 323.8,181.5 324.1,182.6 324.4,183.2 324.6,180.4 324.9,180.7 325.2,168.9 325.5,142.2 325.7,166.2 326.0,183.4 326.3,184.6 326.6,178.4 326.8,145.5 327.1,180.0 327.4,140.0 327.7,183.2 327.9,145.9 328.2,178.1 328.5,136.1 328.8,174.7 329.0,136.6 329.3,187.8 329.6,183.5 329.9,152.9 330.1,183.5 330.4,179.9 330.7,190.0 331.0,178.7 331.2,176.7 331.5,171.7 331.8,182.9 332.1,146.2 332.3,182.1 332.6,145.8 332.9,178.4 333.2,188.6 333.4,185.0 333.7,168.8 334.0,180.5 334.3,179.2 334.5,142.2 334.8,141.0 335.1,182.3 335.4,177.7 335.6,176.8 335.9,155.8 336.2,178.5 336.5,170.0 336.7,139.2 337.0,172.3 337.3,181.4 337.6,148.5 337.8,145.0 338.1,145.9 338.4,138.5 338.7,186.1 338.9,172.0 339.2,139.1 339.5,161.5 339.8,178.2 340.0,146.4 340.3,181.5 340.6,175.5 340.9,184.5 341.1,185.8 341.4,183.1 341.7,143.3 342.0,176.9 342.2,176.2 342.5,168.1 342.8,182.9 343.1,141.8 343.4,182.4 343.6,175.1 343.9,151.8 344.2,104.8 344.5,149.7 344.7,158.1 345.0,156.0 345.3,165.5 345.6,181.4 345.8,184.8 346.1,183.4 346.4,178.9 346.7,154.2 346.9,176.4 347.2,183.0 347.5,177.8 347.8,176.2 348.0,183.0 348.3,181.6 348.6,186.6 348.9,184.3 349.1,174.7 349.4,175.3 349.7,183.8 350.0,135.6 350.2,174.0 350.5,175.1 350.8,162.6 351.1,146.9 351.3,142.0 351.6,146.2 351.9,183.1 352.2,187.4 352.4,184.2 352.7,142.9 353.0,148.4 353.3,178.7 353.5,171.8 353.8,176.5 354.1,175.9 354.4,185.5 354.6,174.5 354.9,143.0 355.2,187.1 355.5,184.2 355.7,162.2 356.0,140.1 356.3,147.1 356.6,179.9 356.8,178.2 357.1,142.5 357.4,168.3 357.7,171.7 357.9,181.5 358.2,179.9 358.5,167.1 358.8,173.7 359.0,137.8 359.3,178.8 359.6,136.4 359.9,179.0 360.1,184.8 360.4,180.4 360.7,188.5 361.0,136.3 361.2,179.6 361.5,164.0 361.8,180.3 362.1,180.7 362.3,146.2 362.6,181.7 362.9,177.1 363.2,133.1 363.4,167.5 363.7,187.2 364.0,175.7 364.3,170.9 364.5,134.5 364.8,145.0 365.1,183.8 365.4,141.1 365.6,174.6 365.9,188.3 366.2,185.5 366.5,144.1 366.7,181.3 367.0,183.1 367.3,133.2 367.6,189.2 367.9,135.8 368.1,191.4 368.4,186.4 368.7,179.7 369.0,165.3 369.2,190.1 369.5,173.7 369.8,146.8 370.1,131.1 370.3,116.2 370.6,142.8 370.9,184.6 371.2,182.4 371.4,176.8 371.7,133.3 372.0,173.5 372.3,137.8 372.5,182.5 372.8,163.3 373.1,175.0 373.4,165.0 373.6,180.9 373.9,179.9 374.2,182.5 374.5,182.5 374.7,183.7 375.0,182.7 375.3,169.9 375.6,143.0 375.8,179.3 376.1,141.4 376.4,187.5 376.7,145.3 376.9,182.4 377.2,179.8 377.5,176.7 377.8,178.6 378.0,162.9 378.3,162.4 378.6,170.0 378.9,144.4 379.1,147.7 379.4,144.6 379.7,183.7 380.0,138.1 380.2,174.9 380.5,176.1 380.8,140.6 381.1,173.4 381.3,161.1 381.6,182.3 381.9,185.8 382.2,101.9 382.4,180.7 382.7,142.9 383.0,179.6 383.3,178.9 383.5,174.2 383.8,180.4 384.1,160.5 384.4,146.9 384.6,146.9 384.9,179.2 385.2,182.4 385.5,146.3 385.7,183.1 386.0,172.0 386.3,160.6 386.6,180.5 386.8,144.0 387.1,149.1 387.4,145.0 387.7,170.9 387.9,186.6 388.2,180.4 388.5,143.0 388.8,181.9 389.0,140.1 389.3,177.4 389.6,148.0 389.9,184.5 390.1,187.6 390.4,178.1 390.7,188.4 391.0,188.6 391.2,186.5 391.5,173.7 391.8,171.6 392.1,178.2 392.3,143.0 392.6,189.1 392.9,146.5 393.2,146.7 393.5,180.4 393.7,125.3 394.0,143.3 394.3,170.7 394.6,165.8 394.8,176.9 395.1,144.5 395.4,181.3 395.7,183.1 395.9,177.9 396.2,175.5 396.5,170.5 396.8,180.7 397.0,160.3 397.3,174.6 397.6,181.2 397.9,98.2 398.1,177.7 398.4,180.3 398.7,142.7 399.0,183.0 399.2,163.5 399.5,139.0 399.8,179.6 400.1,179.0 400.3,132.8 400.6,144.3 400.9,143.7 401.2,180.9 401.4,182.2 401.7,171.4 402.0,136.6 402.3,133.2 402.5,181.9 402.8,176.4 403.1,184.0 403.4,145.5 403.6,175.2 403.9,146.5 404.2,148.4 404.5,150.4 404.7,180.4 405.0,145.9 405.3,133.9 405.6,134.9 405.8,140.2 406.1,143.9 406.4,145.7 406.7,186.9 406.9,188.3 407.2,183.7 407.5,148.2 407.8,142.6 408.0,181.8 408.3,140.5 408.6,178.2 408.9,151.1 409.1,145.7 409.4,181.7 409.7,178.1 410.0,142.3 410.2,186.6 410.5,137.1 410.8,133.7 411.1,179.6 411.3,175.1 411.6,183.1 411.9,184.3 412.2,187.4 412.4,179.7 412.7,184.9 413.0,173.2 413.3,185.8 413.5,173.4 413.8,148.0 414.1,132.5 414.4,152.9 414.6,145.4 414.9,144.2 415.2,142.2 415.5,149.5 415.7,188.0 416.0,141.5 416.3,172.5 416.6,175.7 416.8,175.3 417.1,144.1 417.4,178.8 417.7,184.8 417.9,182.8 418.2,179.1 418.5,142.7 418.8,184.7 419.1,142.0 419.3,138.6 419.6,180.1 419.9,143.6 420.2,147.5 420.4,182.1 420.7,143.8 421.0,171.2 421.3,193.3 421.5,146.5 421.8,168.5 422.1,176.9 422.4,183.4 422.6,185.5 422.9,144.3 423.2,146.3 423.5,146.6 423.7,177.2 424.0,136.5 424.3,177.5 424.6,180.9 424.8,154.1 425.1,165.7 425.4,185.4 425.7,141.8 425.9,144.9 426.2,181.9 426.5,179.5 426.8,144.3 427.0,183.3 427.3,158.0 427.6,181.9 427.9,162.5 428.1,145.5 428.4,143.2 428.7,180.3 429.0,185.3 429.2,185.4 429.5,181.9 429.8,140.0 430.1,167.8 430.3,175.7 430.6,140.1 430.9,178.7 431.2,178.5 431.4,178.9 431.7,187.6 432.0,189.0 432.3,181.5 432.5,181.5 432.8,162.0 433.1,166.0 433.4,137.6 433.6,141.6 433.9,163.9 434.2,166.5 434.5,159.8 434.7,131.9 435.0,140.0 435.3,169.7 435.6,153.0 435.8,161.5 436.1,170.0 436.4,170.8 436.7,142.4 436.9,147.9 437.2,168.0 437.5,169.5 437.8,154.1 438.0,137.8 438.3,136.5 438.6,156.5 438.9,133.8 439.1,174.1 439.4,166.6 439.7,128.7 440.0,155.5 440.2,167.9 440.5,176.3 440.8,176.0 441.1,167.6 441.3,157.6 441.6,175.1 441.9,172.1 442.2,165.1 442.4,177.4 442.7,182.7 443.0,166.0 443.3,147.8 443.6,169.5 443.8,177.4 444.1,171.3 444.4,140.1 444.7,177.9 444.9,166.3 445.2,180.7 445.5,161.0 445.8,179.3 446.0,161.8 446.3,168.5 446.6,135.8 446.9,177.7 447.1,170.2 447.4,154.5 447.7,180.3 448.0,176.9 448.2,125.5 448.5,129.2 448.8,174.7 449.1,175.8 449.3,171.9 449.6,181.7 449.9,147.5 450.2,176.5 450.4,173.0 450.7,176.1 451.0,140.5 451.3,183.0 451.5,139.6 451.8,174.8 452.1,180.2 452.4,146.3 452.6,144.8 452.9,140.3 453.2,179.4 453.5,177.6 453.7,185.7 454.0,182.8 454.3,179.9 454.6,183.2 454.8,139.1 455.1,172.5 455.4,181.4 455.7,184.0 455.9,178.6 456.2,142.7 456.5,177.5 456.8,182.8 457.0,178.8 457.3,172.9 457.6,147.4 457.9,176.0 458.1,140.7 458.4,99.2 458.7,186.0 459.0,175.8 459.2,184.1 459.5,137.8 459.8,177.5 460.1,178.9 460.3,180.7 460.6,184.9 460.9,149.9 461.2,179.2 461.4,135.6 461.7,143.7 462.0,145.5 462.3,144.3 462.5,141.6 462.8,144.2 463.1,141.3 463.4,183.4 463.6,184.7 463.9,185.2 464.2,178.3 464.5,145.2 464.7,143.2 465.0,145.7 465.3,181.4 465.6,183.7 465.8,184.9 466.1,140.9 466.4,186.1 466.7,138.0 466.9,174.7 467.2,186.6 467.5,168.0 467.8,182.7 468.0,179.9 468.3,181.2 468.6,180.0 468.9,167.8 469.2,142.1 469.4,184.1 469.7,140.8 470.0,154.1 470.3,141.0 470.5,176.4 470.8,158.2 471.1,138.4 471.4,182.4 471.6,179.4 471.9,137.4 472.2,140.4 472.5,175.5 472.7,175.9 473.0,170.1 473.3,171.0 473.6,169.3 473.8,165.1 474.1,184.8 474.4,178.8 474.7,139.0 474.9,177.0 475.2,101.7 475.5,183.3 475.8,185.8 476.0,135.8 476.3,180.2 476.6,143.3 476.9,178.6 477.1,165.9 477.4,171.0 477.7,155.4 478.0,137.0 478.2,175.5 478.5,183.6 478.8,182.8 479.1,172.3 479.3,136.4 479.6,163.9 479.9,166.9 480.2,173.8 480.4,160.7 480.7,170.7 481.0,181.1 481.3,139.0 481.5,177.9 481.8,145.9 482.1,176.1 482.4,181.2 482.6,180.4 482.9,181.5 483.2,146.3 483.5,178.7 483.7,181.4 484.0,141.9 484.3,170.4 484.6,178.3 484.8,173.7 485.1,173.6 485.4,177.0 485.7,172.3 485.9,141.1 486.2,141.6 486.5,142.2 486.8,174.5 487.0,177.9 487.3,183.3 487.6,164.0 487.9,168.4 488.1,163.4 488.4,169.8 488.7,141.1 489.0,180.6 489.2,145.5 489.5,140.5 489.8,139.0 490.1,177.5 490.3,165.5 490.6,180.2 490.9,132.3 491.2,174.1 491.4,141.4 491.7,177.5 492.0,187.1 492.3,143.5 492.5,178.8 492.8,140.3 493.1,180.9 493.4,168.2 493.6,170.3 493.9,182.5 494.2,188.4 494.5,181.9 494.8,138.6 495.0,96.9 495.3,100.6 495.6,178.1 495.9,139.3 496.1,179.4 496.4,145.1 496.7,135.6 497.0,175.4 497.2,177.2 497.5,140.8 497.8,179.5 498.1,138.1 498.3,167.6 498.6,182.5 498.9,177.0 499.2,175.6 499.4,170.5 499.7,138.1 500.0,176.4 500.3,181.0 500.5,177.5 500.8,178.1 501.1,174.3 501.4,168.7 501.6,193.0 501.9,148.4 502.2,145.9 502.5,182.1 502.7,145.5 503.0,144.9 503.3,187.6 503.6,142.0 503.8,182.4 504.1,188.0 504.4,183.1 504.7,179.6 504.9,187.5 505.2,182.9 505.5,178.4 505.8,178.3 506.0,138.8 506.3,180.3 506.6,170.5 506.9,143.0 507.1,142.5 507.4,158.1 507.7,168.2 508.0,140.6 508.2,143.6 508.5,185.6 508.8,182.6 509.1,135.5 509.3,136.2 509.6,147.2 509.9,174.2 510.2,185.6 510.4,160.8 510.7,136.3 511.0,178.2 511.3,179.2 511.5,166.9 511.8,184.1 512.1,161.1 512.4,124.5 512.6,168.5 512.9,182.1 513.2,172.8 513.5,138.1 513.7,133.7 514.0,143.7 514.3,180.7 514.6,142.1 514.8,179.1 515.1,174.2 515.4,168.5 515.7,134.8 515.9,164.1 516.2,183.1 516.5,173.3 516.8,152.7 517.0,175.8 517.3,182.9 517.6,156.0 517.9,135.4 518.1,182.1 518.4,173.3 518.7,176.5 519.0,179.3 519.3,179.8 519.5,137.0 519.8,163.2 520.1,178.2 520.4,177.9 520.6,146.4 520.9,159.8 521.2,177.3 521.5,144.9 521.7,176.5 522.0,174.1 522.3,179.2 522.6,142.1 522.8,181.2 523.1,166.6 523.4,177.3 523.7,100.8 523.9,177.7 524.2,178.9 524.5,147.2 524.8,113.0 525.0,174.3 525.3,172.9 525.6,148.2 525.9,175.7 526.1,181.2 526.4,147.8 526.7,176.0 527.0,175.0 527.2,91.1 527.5,176.3 527.8,178.2 528.1,182.1 528.3,178.8 528.6,176.1 528.9,173.6 529.2,142.4 529.4,175.5 529.7,162.5 530.0,138.3 530.3,158.3 530.5,177.7 530.8,144.7 531.1,143.9 531.4,174.9 531.6,181.6 531.9,177.2 532.2,176.6 532.5,174.4 532.7,186.5 533.0,189.0 533.3,173.5 533.6,130.9 533.8,135.4 534.1,147.6 534.4,139.6 534.7,171.6 534.9,186.6 535.2,183.8 535.5,181.7 535.8,178.8 536.0,176.2 536.3,93.7 536.6,173.8 536.9,183.0 537.1,144.9 537.4,145.4 537.7,139.3 538.0,175.4 538.2,118.2 538.5,145.2 538.8,100.3 539.1,172.2 539.3,174.9 539.6,162.1 539.9,176.9 540.2,147.9 540.4,177.8 540.7,130.3 541.0,95.6 541.3,140.7 541.5,145.0 541.8,154.3 542.1,139.1 542.4,142.4 542.6,141.4 542.9,173.2 543.2,183.3 543.5,166.3 543.7,181.1 544.0,137.9 544.3,179.2 544.6,132.1 544.9,186.6 545.1,159.1 545.4,143.0 545.7,160.8 546.0,180.1 546.2,175.7 546.5,182.3 546.8,156.2 547.1,175.5 547.3,160.1 547.6,184.0 547.9,177.8 548.2,135.8 548.4,171.9 548.7,180.5 549.0,142.8 549.3,139.1 549.5,175.3 549.8,172.4 550.1,183.9 550.4,179.6 550.6,139.8 550.9,172.3 551.2,172.3 551.5,146.2 551.7,179.5 552.0,171.0 552.3,143.0 552.6,142.9 552.8,174.2 553.1,192.6 553.4,159.4 553.7,172.6 553.9,155.2 554.2,144.2 554.5,170.7 554.8,181.9 555.0,164.0 555.3,139.3 555.6,173.3 555.9,176.7 556.1,178.4 556.4,173.9 556.7,179.1 557.0,140.0 557.2,169.1 557.5,139.9 557.8,176.3 558.1,176.2 558.3,182.1 558.6,130.1 558.9,181.3 559.2,142.5 559.4,170.2 559.7,143.7 560.0,187.3 560.3,144.1 560.5,143.2 560.8,140.8 561.1,175.2 561.4,184.3 561.6,193.1 561.9,170.9 562.2,176.1 562.5,138.9 562.7,165.3 563.0,182.4 563.3,190.6 563.6,144.1 563.8,145.2 564.1,145.7 564.4,152.2 564.7,173.7 564.9,183.1 565.2,149.5 565.5,146.5 565.8,146.8 566.0,185.7 566.3,182.0 566.6,183.1 566.9,150.5 567.1,175.8 567.4,182.4 567.7,142.9 568.0,184.0 568.2,148.7 568.5,188.1 568.8,145.3 569.1,144.9 569.3,143.4 569.6,176.0 569.9,180.6 570.2,176.1 570.5,137.2 570.7,178.0 571.0,186.7 571.3,144.5 571.6,143.3 571.8,179.5 572.1,179.1 572.4,186.9 572.7,186.4 572.9,188.7 573.2,146.4 573.5,179.2 573.8,147.9 574.0,142.1 574.3,146.2 574.6,182.9 574.9,143.5 575.1,176.1 575.4,183.6 575.7,146.8 576.0,172.9 576.2,190.5 576.5,142.4 576.8,147.7 577.1,179.1 577.3,181.0 577.6,180.1 577.9,145.2 578.2,177.3 578.4,181.5 578.7,142.4 579.0,181.1 579.3,176.3 579.5,178.7 579.8,178.3 580.1,180.7 580.4,181.7 580.6,182.5 580.9,189.3 581.2,145.9 581.5,189.5 581.7,146.4 582.0,178.8 582.3,146.3 582.6,146.2 582.8,137.7 583.1,186.2 583.4,181.1 583.7,138.8 583.9,170.4 584.2,167.4 584.5,173.8 584.8,148.1 585.0,140.6 585.3,143.4 585.6,144.0 585.9,146.6 586.1,181.7 586.4,180.9 586.7,182.4 587.0,147.0 587.2,143.8 587.5,145.3 587.8,184.6 588.1,181.0 588.3,180.4 588.6,178.1 588.9,169.3 589.2,182.5 589.4,171.6 589.7,141.6 590.0,170.3 590.3,151.2 590.5,175.3 590.8,159.3 591.1,163.4 591.4,144.6 591.6,172.0 591.9,166.6 592.2,166.0 592.5,190.6 592.7,171.0 593.0,179.4 593.3,152.4 593.6,166.5 593.8,175.2 594.1,161.8 594.4,160.8 594.7,179.7 595.0,125.1 595.2,182.2 595.5,173.4 595.8,177.1 596.1,175.4 596.3,171.9 596.6,173.9 596.9,176.4 597.2,179.3 597.4,184.4 597.7,191.5 598.0,183.4 598.3,174.1 598.5,181.7 598.8,167.2 599.1,177.5 599.4,149.4 599.6,181.5 599.9,161.3 600.2,133.4 600.5,140.1 600.7,168.2 601.0,143.5 601.3,142.9 601.6,143.6 601.8,171.6 602.1,176.7 602.4,145.2 602.7,155.7 602.9,170.8 603.2,168.3 603.5,169.5 603.8,152.1 604.0,133.4 604.3,166.8 604.6,164.0 604.9,172.7 605.1,172.2 605.4,190.6 605.7,178.9 606.0,170.1 606.2,180.1 606.5,143.4 606.8,164.5 607.1,174.0 607.3,177.5 607.6,135.8 607.9,135.1 608.2,163.3 608.4,184.9 608.7,173.6 609.0,171.8 609.3,169.5 609.5,179.2 609.8,144.2 610.1,184.4 610.4,175.1 610.6,179.5 610.9,178.9 611.2,171.3 611.5,171.1 611.7,137.7 612.0,175.4 612.3,146.3 612.6,182.3 612.8,142.0 613.1,142.0 613.4,149.5 613.7,137.0 613.9,166.3 614.2,186.3 614.5,177.7 614.8,165.1 615.0,181.0 615.3,143.0 615.6,143.3 615.9,180.6 616.1,185.3 616.4,161.8 616.7,177.5 617.0,173.2 617.2,181.4 617.5,178.3 617.8,142.9 618.1,172.4 618.3,185.1 618.6,150.3 618.9,142.4 619.2,158.3 619.4,140.6 619.7,132.6 620.0,183.9"/><polyline fill="none" stroke="#22d3ee" stroke-width="1.6" stroke-linejoin="round" stroke-linecap="round" points="40.0,206.2 40.3,210.9 40.6,201.7 40.8,201.7 41.1,167.7 41.4,205.6 41.7,130.6 41.9,209.5 42.2,196.8 42.5,206.5 42.8,202.1 43.0,126.1 43.3,170.8 43.6,208.1 43.9,171.5 44.1,170.1 44.4,131.0 44.7,127.4 45.0,202.5 45.2,168.6 45.5,203.0 45.8,169.1 46.1,204.8 46.3,170.4 46.6,168.4 46.9,167.0 47.2,208.3 47.4,168.1 47.7,209.3 48.0,207.5 48.3,168.9 48.5,168.2 48.8,126.2 49.1,127.0 49.4,127.7 49.6,128.1 49.9,168.8 50.2,207.9 50.5,168.9 50.7,207.4 51.0,168.9 51.3,208.7 51.6,169.3 51.8,207.6 52.1,169.1 52.4,170.7 52.7,126.7 52.9,204.2 53.2,168.2 53.5,165.5 53.8,127.5 54.0,208.3 54.3,170.4 54.6,206.4 54.9,162.6 55.1,172.2 55.4,167.5 55.7,165.3 56.0,120.2 56.2,200.1 56.5,167.1 56.8,169.3 57.1,165.9 57.3,204.2 57.6,204.1 57.9,208.5 58.2,170.7 58.4,123.2 58.7,205.8 59.0,207.8 59.3,165.8 59.5,171.1 59.8,165.8 60.1,204.5 60.4,206.1 60.6,169.2 60.9,168.7 61.2,169.0 61.5,207.4 61.7,164.5 62.0,207.5 62.3,205.9 62.6,168.6 62.8,169.3 63.1,208.8 63.4,208.0 63.7,167.8 63.9,167.9 64.2,158.6 64.5,169.4 64.8,197.4 65.0,168.3 65.3,198.9 65.6,171.4 65.9,209.5 66.1,171.0 66.4,129.2 66.7,168.6 67.0,67.8 67.2,206.9 67.5,169.0 67.8,209.2 68.1,168.5 68.3,207.3 68.6,201.4 68.9,200.6 69.2,194.7 69.4,207.3 69.7,201.7 70.0,207.0 70.3,198.9 70.5,169.2 70.8,170.9 71.1,196.7 71.4,206.4 71.6,205.9 71.9,165.3 72.2,206.2 72.5,200.7 72.7,167.6 73.0,198.6 73.3,201.9 73.6,194.7 73.8,209.1 74.1,207.2 74.4,208.4 74.7,170.8 74.9,171.1 75.2,183.2 75.5,207.4 75.8,206.1 76.0,207.4 76.3,168.1 76.6,208.5 76.9,171.7 77.1,124.4 77.4,162.6 77.7,208.4 78.0,167.4 78.2,168.3 78.5,202.0 78.8,167.0 79.1,120.2 79.3,203.4 79.6,168.7 79.9,171.2 80.2,200.5 80.4,200.0 80.7,207.9 81.0,207.2 81.3,204.9 81.5,207.8 81.8,209.3 82.1,169.5 82.4,199.6 82.6,168.7 82.9,205.6 83.2,204.9 83.5,207.2 83.7,155.8 84.0,193.9 84.3,206.6 84.6,211.2 84.8,169.9 85.1,166.2 85.4,207.4 85.7,171.0 85.9,206.0 86.2,195.7 86.5,206.5 86.8,193.5 87.0,208.9 87.3,168.5 87.6,205.1 87.9,194.5 88.1,168.1 88.4,168.2 88.7,207.2 89.0,199.9 89.3,207.6 89.5,200.8 89.8,204.8 90.1,205.8 90.4,167.2 90.6,166.7 90.9,209.3 91.2,205.1 91.5,206.2 91.7,199.5 92.0,204.1 92.3,167.3 92.6,206.2 92.8,195.4 93.1,202.6 93.4,206.6 93.7,170.2 93.9,170.0 94.2,171.2 94.5,165.6 94.8,205.7 95.0,198.9 95.3,208.9 95.6,203.0 95.9,198.4 96.1,199.8 96.4,166.0 96.7,205.7 97.0,203.5 97.2,189.2 97.5,205.6 97.8,209.7 98.1,206.0 98.3,167.5 98.6,163.8 98.9,197.2 99.2,206.7 99.4,202.6 99.7,169.0 100.0,170.1 100.3,204.6 100.5,193.4 100.8,206.6 101.1,171.4 101.4,210.5 101.6,206.1 101.9,208.1 102.2,169.0 102.5,207.1 102.7,162.5 103.0,201.2 103.3,193.8 103.6,206.0 103.8,207.9 104.1,198.8 104.4,170.0 104.7,206.9 104.9,207.1 105.2,209.4 105.5,195.5 105.8,203.1 106.0,203.0 106.3,167.6 106.6,200.3 106.9,205.9 107.1,160.4 107.4,166.7 107.7,206.1 108.0,210.8 108.2,199.7 108.5,164.4 108.8,206.0 109.1,202.5 109.3,208.3 109.6,206.0 109.9,171.4 110.2,200.5 110.4,170.2 110.7,166.6 111.0,205.1 111.3,201.0 111.5,203.1 111.8,210.1 112.1,205.2 112.4,204.4 112.6,169.5 112.9,212.2 113.2,172.1 113.5,196.5 113.7,201.7 114.0,162.8 114.3,206.2 114.6,203.9 114.8,204.2 115.1,167.5 115.4,196.8 115.7,202.1 115.9,198.0 116.2,170.7 116.5,198.9 116.8,203.9 117.0,200.9 117.3,204.4 117.6,201.0 117.9,169.0 118.1,200.9 118.4,203.1 118.7,171.4 119.0,208.4 119.2,195.4 119.5,166.6 119.8,206.4 120.1,204.5 120.3,208.9 120.6,206.5 120.9,200.2 121.2,203.2 121.4,204.1 121.7,169.0 122.0,199.1 122.3,168.0 122.5,205.9 122.8,212.3 123.1,205.9 123.4,202.8 123.6,200.2 123.9,170.7 124.2,206.6 124.5,205.7 124.7,205.3 125.0,196.3 125.3,198.1 125.6,129.1 125.8,126.7 126.1,169.2 126.4,202.6 126.7,169.8 126.9,207.5 127.2,169.0 127.5,207.1 127.8,165.9 128.0,201.4 128.3,203.2 128.6,168.2 128.9,198.5 129.1,170.3 129.4,208.8 129.7,208.7 130.0,208.4 130.2,189.5 130.5,199.4 130.8,142.8 131.1,170.0 131.3,203.2 131.6,169.1 131.9,171.3 132.2,170.3 132.4,167.9 132.7,168.5 133.0,198.0 133.3,169.7 133.5,201.0 133.8,168.5 134.1,203.9 134.4,206.2 134.6,202.0 134.9,198.6 135.2,198.6 135.5,208.0 135.7,165.7 136.0,201.2 136.3,202.8 136.6,171.2 136.9,211.3 137.1,206.3 137.4,207.2 137.7,170.0 138.0,168.5 138.2,164.8 138.5,198.5 138.8,203.7 139.1,203.6 139.3,203.7 139.6,206.4 139.9,126.4 140.2,203.8 140.4,170.6 140.7,169.6 141.0,207.5 141.3,165.2 141.5,200.4 141.8,169.1 142.1,205.2 142.4,205.8 142.6,205.4 142.9,168.5 143.2,209.8 143.5,206.7 143.7,202.0 144.0,203.2 144.3,202.4 144.6,197.7 144.8,169.4 145.1,170.1 145.4,201.8 145.7,167.2 145.9,207.4 146.2,169.0 146.5,168.1 146.8,201.2 147.0,167.0 147.3,199.7 147.6,206.1 147.9,198.9 148.1,195.7 148.4,196.8 148.7,193.5 149.0,206.8 149.2,206.9 149.5,203.6 149.8,166.0 150.1,204.3 150.3,206.3 150.6,172.1 150.9,169.5 151.2,205.5 151.4,210.5 151.7,169.0 152.0,204.6 152.3,206.6 152.5,204.4 152.8,206.2 153.1,209.4 153.4,207.6 153.6,200.5 153.9,208.4 154.2,209.5 154.5,169.5 154.7,168.9 155.0,166.0 155.3,198.3 155.6,210.4 155.8,210.2 156.1,168.7 156.4,167.7 156.7,200.5 156.9,209.9 157.2,168.9 157.5,202.6 157.8,193.0 158.0,168.3 158.3,197.5 158.6,171.3 158.9,170.1 159.1,204.8 159.4,169.9 159.7,170.4 160.0,207.2 160.2,209.3 160.5,205.8 160.8,197.5 161.1,196.8 161.3,203.9 161.6,208.0 161.9,207.3 162.2,203.5 162.4,210.6 162.7,207.8 163.0,169.3 163.3,168.0 163.5,197.9 163.8,195.7 164.1,206.6 164.4,167.7 164.6,204.7 164.9,207.9 165.2,198.9 165.5,204.2 165.7,207.3 166.0,198.5 166.3,202.6 166.6,208.6 166.8,203.3 167.1,168.9 167.4,203.6 167.7,206.7 167.9,201.9 168.2,169.0 168.5,169.6 168.8,168.2 169.0,205.4 169.3,203.6 169.6,167.3 169.9,170.1 170.1,205.1 170.4,170.7 170.7,205.7 171.0,131.6 171.2,207.0 171.5,168.2 171.8,168.6 172.1,204.4 172.3,204.2 172.6,206.7 172.9,168.2 173.2,206.8 173.4,201.9 173.7,205.9 174.0,169.1 174.3,200.8 174.5,168.7 174.8,209.8 175.1,204.5 175.4,162.7 175.6,125.7 175.9,167.0 176.2,202.9 176.5,161.4 176.7,169.1 177.0,199.3 177.3,166.8 177.6,201.3 177.8,123.2 178.1,170.4 178.4,169.3 178.7,170.4 178.9,170.4 179.2,207.7 179.5,170.2 179.8,204.1 180.0,202.3 180.3,203.9 180.6,204.9 180.9,208.5 181.1,208.4 181.4,169.7 181.7,204.9 182.0,206.9 182.2,204.7 182.5,203.8 182.8,197.7 183.1,167.1 183.3,208.4 183.6,168.4 183.9,208.8 184.2,206.9 184.4,208.2 184.7,162.1 185.0,206.3 185.3,196.9 185.6,200.0 185.8,195.1 186.1,166.9 186.4,205.3 186.7,203.1 186.9,171.2 187.2,208.5 187.5,170.5 187.8,210.0 188.0,199.2 188.3,159.9 188.6,204.9 188.9,169.0 189.1,166.5 189.4,204.7 189.7,204.6 190.0,202.4 190.2,204.8 190.5,206.0 190.8,158.9 191.1,196.4 191.3,195.1 191.6,205.2 191.9,203.8 192.2,171.6 192.4,168.2 192.7,168.4 193.0,169.6 193.3,207.1 193.5,200.9 193.8,202.4 194.1,205.0 194.4,206.5 194.6,207.6 194.9,206.5 195.2,170.3 195.5,206.3 195.7,168.6 196.0,169.0 196.3,192.5 196.6,205.7 196.8,165.8 197.1,208.9 197.4,206.3 197.7,167.1 197.9,208.0 198.2,164.8 198.5,162.4 198.8,159.6 199.0,204.2 199.3,208.3 199.6,204.5 199.9,194.9 200.1,204.2 200.4,169.6 200.7,207.3 201.0,207.2 201.2,208.1 201.5,203.6 201.8,169.2 202.1,168.7 202.3,105.1 202.6,165.1 202.9,202.8 203.2,209.6 203.4,206.4 203.7,206.3 204.0,166.3 204.3,207.7 204.5,193.1 204.8,168.1 205.1,161.1 205.4,204.7 205.6,205.0 205.9,202.4 206.2,202.1 206.5,200.9 206.7,206.4 207.0,201.4 207.3,196.3 207.6,195.3 207.8,211.0 208.1,209.3 208.4,169.5 208.7,204.1 208.9,207.8 209.2,209.2 209.5,207.6 209.8,201.7 210.0,204.8 210.3,201.9 210.6,203.5 210.9,206.6 211.1,204.9 211.4,170.6 211.7,207.3 212.0,170.7 212.2,169.7 212.5,207.4 212.8,196.7 213.1,205.0 213.3,201.0 213.6,206.1 213.9,207.0 214.2,203.9 214.4,201.2 214.7,209.3 215.0,209.1 215.3,208.7 215.5,204.6 215.8,169.0 216.1,165.7 216.4,211.4 216.6,170.5 216.9,207.1 217.2,202.5 217.5,208.6 217.7,170.5 218.0,168.1 218.3,167.2 218.6,195.8 218.8,205.5 219.1,202.7 219.4,128.1 219.7,202.3 219.9,207.2 220.2,169.4 220.5,207.7 220.8,168.5 221.0,200.5 221.3,167.6 221.6,205.5 221.9,165.4 222.1,204.6 222.4,211.6 222.7,170.2 223.0,166.2 223.2,211.9 223.5,202.7 223.8,197.6 224.1,200.2 224.3,166.2 224.6,168.0 224.9,167.7 225.2,204.6 225.4,204.3 225.7,206.2 226.0,171.8 226.3,203.6 226.5,196.4 226.8,203.7 227.1,166.9 227.4,168.7 227.6,211.7 227.9,206.0 228.2,207.4 228.5,203.0 228.7,204.8 229.0,209.4 229.3,203.7 229.6,198.5 229.8,203.5 230.1,207.6 230.4,118.5 230.7,206.6 230.9,205.8 231.2,211.4 231.5,206.1 231.8,168.1 232.0,196.9 232.3,202.6 232.6,204.1 232.9,205.0 233.1,201.9 233.4,201.8 233.7,170.2 234.0,208.5 234.3,207.8 234.5,208.9 234.8,199.9 235.1,205.8 235.4,165.8 235.6,207.0 235.9,169.8 236.2,211.8 236.5,206.3 236.7,169.6 237.0,203.5 237.3,210.9 237.6,203.7 237.8,194.5 238.1,201.7 238.4,170.3 238.7,169.2 238.9,209.6 239.2,167.9 239.5,201.6 239.8,169.4 240.0,205.8 240.3,168.1 240.6,198.2 240.9,204.3 241.1,170.0 241.4,168.4 241.7,165.9 242.0,168.7 242.2,203.8 242.5,166.6 242.8,168.0 243.1,196.6 243.3,207.1 243.6,160.9 243.9,170.0 244.2,170.3 244.4,206.5 244.7,205.7 245.0,208.3 245.3,207.2 245.5,198.6 245.8,196.2 246.1,166.6 246.4,167.4 246.6,206.7 246.9,168.7 247.2,168.1 247.5,206.4 247.7,203.0 248.0,125.9 248.3,205.9 248.6,198.9 248.8,169.9 249.1,207.6 249.4,207.6 249.7,169.3 249.9,169.6 250.2,207.3 250.5,168.7 250.8,208.8 251.0,169.6 251.3,167.7 251.6,196.2 251.9,206.2 252.1,204.0 252.4,202.2 252.7,206.7 253.0,202.3 253.2,205.4 253.5,199.8 253.8,169.4 254.1,193.8 254.3,210.4 254.6,201.8 254.9,205.2 255.2,206.2 255.4,165.4 255.7,205.9 256.0,203.9 256.3,206.2 256.5,210.9 256.8,205.5 257.1,170.2 257.4,198.0 257.6,206.3 257.9,170.1 258.2,204.2 258.5,211.2 258.7,169.6 259.0,209.6 259.3,208.3 259.6,166.2 259.8,201.5 260.1,159.9 260.4,204.1 260.7,202.7 260.9,208.8 261.2,201.8 261.5,167.0 261.8,206.2 262.0,206.6 262.3,201.1 262.6,205.4 262.9,159.9 263.1,169.1 263.4,209.2 263.7,204.4 264.0,209.6 264.2,164.0 264.5,202.1 264.8,211.4 265.1,198.2 265.3,165.6 265.6,167.5 265.9,209.4 266.2,165.7 266.4,198.7 266.7,125.3 267.0,166.1 267.3,202.7 267.5,168.4 267.8,204.0 268.1,164.0 268.4,165.5 268.6,206.7 268.9,167.7 269.2,166.1 269.5,207.1 269.7,209.1 270.0,128.6 270.3,206.2 270.6,200.2 270.8,204.4 271.1,206.3 271.4,171.8 271.7,202.4 271.9,207.6 272.2,209.1 272.5,169.0 272.8,207.0 273.0,129.3 273.3,169.7 273.6,207.3 273.9,159.6 274.1,167.9 274.4,166.5 274.7,207.8 275.0,206.3 275.2,168.4 275.5,204.2 275.8,167.5 276.1,199.0 276.3,205.4 276.6,198.3 276.9,169.1 277.2,166.5 277.4,167.8 277.7,170.1 278.0,169.5 278.3,208.1 278.5,167.7 278.8,168.1 279.1,203.9 279.4,203.4 279.6,169.0 279.9,205.1 280.2,205.4 280.5,204.9 280.7,205.4 281.0,207.2 281.3,163.0 281.6,168.0 281.9,199.9 282.1,201.6 282.4,206.5 282.7,168.5 283.0,169.3 283.2,170.5 283.5,207.9 283.8,208.4 284.1,164.7 284.3,203.6 284.6,201.3 284.9,203.1 285.2,128.1 285.4,171.7 285.7,206.4 286.0,171.7 286.3,171.4 286.5,210.0 286.8,169.8 287.1,197.3 287.4,203.6 287.6,199.8 287.9,206.0 288.2,205.0 288.5,203.5 288.7,206.6 289.0,167.9 289.3,168.6 289.6,167.9 289.8,196.8 290.1,170.3 290.4,202.6 290.7,164.8 290.9,170.4 291.2,170.0 291.5,169.6 291.8,206.5 292.0,167.5 292.3,209.8 292.6,203.9 292.9,201.1 293.1,198.0 293.4,206.1 293.7,170.0 294.0,168.3 294.2,168.8 294.5,207.6 294.8,168.6 295.1,168.6 295.3,203.1 295.6,206.9 295.9,203.4 296.2,170.5 296.4,202.2 296.7,169.0 297.0,207.2 297.3,208.3 297.5,209.3 297.8,209.1 298.1,165.8 298.4,202.5 298.6,194.1 298.9,204.3 299.2,170.5 299.5,167.7 299.7,207.4 300.0,210.0 300.3,206.0 300.6,167.8 300.8,198.4 301.1,200.9 301.4,165.0 301.7,125.8 301.9,169.7 302.2,169.8 302.5,170.1 302.8,169.7 303.0,209.8 303.3,170.0 303.6,166.8 303.9,203.0 304.1,200.9 304.4,204.1 304.7,171.8 305.0,169.7 305.2,166.8 305.5,205.6 305.8,170.8 306.1,208.9 306.3,203.8 306.6,201.8 306.9,201.3 307.2,203.7 307.4,169.4 307.7,168.2 308.0,167.7 308.3,205.2 308.5,171.0 308.8,208.0 309.1,197.1 309.4,194.9 309.6,206.8 309.9,203.8 310.2,206.8 310.5,208.7 310.7,168.5 311.0,203.1 311.3,167.8 311.6,206.0 311.8,203.7 312.1,204.9 312.4,207.3 312.7,167.1 312.9,208.3 313.2,167.9 313.5,169.6 313.8,200.9 314.0,211.8 314.3,210.3 314.6,199.5 314.9,200.4 315.1,169.3 315.4,169.4 315.7,168.4 316.0,206.1 316.2,204.9 316.5,209.1 316.8,170.0 317.1,205.6 317.3,197.6 317.6,166.3 317.9,202.8 318.2,206.3 318.4,206.8 318.7,206.9 319.0,208.9 319.3,205.7 319.5,204.6 319.8,205.5 320.1,203.4 320.4,200.6 320.6,198.0 320.9,207.1 321.2,168.3 321.5,203.1 321.7,209.4 322.0,168.8 322.3,206.0 322.6,205.8 322.8,167.9 323.1,206.4 323.4,206.6 323.7,171.1 323.9,209.1 324.2,169.0 324.5,206.9 324.8,205.6 325.0,204.4 325.3,164.7 325.6,205.2 325.9,197.1 326.1,208.1 326.4,209.1 326.7,206.2 327.0,169.1 327.2,203.2 327.5,170.2 327.8,170.2 328.1,167.7 328.3,198.9 328.6,203.1 328.9,202.3 329.2,207.1 329.4,163.3 329.7,167.3 330.0,167.2 330.3,169.7 330.6,204.7 330.8,168.0 331.1,203.7 331.4,208.1 331.7,208.3 331.9,170.7 332.2,169.4 332.5,168.6 332.8,211.0 333.0,205.6 333.3,211.8 333.6,206.8 333.9,202.5 334.1,166.2 334.4,205.5 334.7,210.5 335.0,166.0 335.2,169.0 335.5,208.7 335.8,207.2 336.1,198.0 336.3,208.7 336.6,203.3 336.9,169.2 337.2,168.0 337.4,169.1 337.7,207.4 338.0,169.7 338.3,209.4 338.5,198.2 338.8,204.5 339.1,198.6 339.4,165.1 339.6,195.9 339.9,202.7 340.2,208.2 340.5,205.9 340.7,203.6 341.0,207.1 341.3,166.9 341.6,168.7 341.8,167.0 342.1,164.7 342.4,204.2 342.7,200.2 342.9,208.8 343.2,205.0 343.5,168.4 343.8,204.8 344.0,206.2 344.3,122.2 344.6,170.1 344.9,196.5 345.1,191.8 345.4,199.5 345.7,169.1 346.0,170.8 346.2,168.2 346.5,203.6 346.8,208.4 347.1,203.6 347.3,206.9 347.6,168.1 347.9,209.5 348.2,201.9 348.4,168.7 348.7,206.7 349.0,167.7 349.3,203.0 349.5,166.8 349.8,203.8 350.1,170.0 350.4,202.3 350.6,206.1 350.9,205.2 351.2,168.2 351.5,167.3 351.7,211.1 352.0,209.9 352.3,210.6 352.6,169.3 352.8,168.3 353.1,202.0 353.4,167.9 353.7,198.3 353.9,208.2 354.2,200.2 354.5,169.0 354.8,203.8 355.0,161.1 355.3,207.8 355.6,206.9 355.9,202.9 356.1,206.7 356.4,193.1 356.7,205.4 357.0,209.3 357.2,167.1 357.5,198.3 357.8,205.7 358.1,205.6 358.3,205.6 358.6,166.9 358.9,168.7 359.2,202.7 359.4,167.3 359.7,168.2 360.0,201.9 360.3,207.0 360.5,204.7 360.8,208.1 361.1,165.9 361.4,169.2 361.6,202.0 361.9,198.2 362.2,204.1 362.5,205.4 362.7,206.7 363.0,205.0 363.3,166.1 363.6,197.6 363.8,170.4 364.1,200.6 364.4,207.7 364.7,166.2 364.9,170.5 365.2,167.6 365.5,166.5 365.8,204.0 366.0,166.9 366.3,165.4 366.6,207.9 366.9,208.3 367.1,207.9 367.4,163.1 367.7,206.8 368.0,204.6 368.2,207.9 368.5,207.7 368.8,206.1 369.1,207.4 369.3,168.2 369.6,202.9 369.9,166.5 370.2,124.4 370.4,198.0 370.7,208.1 371.0,168.7 371.3,206.8 371.5,168.4 371.8,162.2 372.1,200.2 372.4,157.3 372.6,159.5 372.9,198.4 373.2,200.2 373.5,202.9 373.7,206.2 374.0,205.9 374.3,207.8 374.6,207.2 374.8,206.0 375.1,201.8 375.4,203.0 375.7,166.8 375.9,199.0 376.2,172.0 376.5,166.5 376.8,206.7 377.0,204.2 377.3,204.8 377.6,203.5 377.9,168.7 378.1,206.7 378.4,196.0 378.7,170.9 379.0,170.0 379.3,207.0 379.5,168.7 379.8,171.2 380.1,168.3 380.4,167.9 380.6,207.4 380.9,167.7 381.2,201.0 381.5,193.8 381.7,170.7 382.0,208.3 382.3,125.5 382.6,202.9 382.8,209.2 383.1,203.8 383.4,203.3 383.7,204.9 383.9,205.2 384.2,199.4 384.5,210.3 384.8,170.8 385.0,203.4 385.3,207.0 385.6,171.8 385.9,208.7 386.1,202.5 386.4,195.7 386.7,169.0 387.0,205.6 387.2,168.4 387.5,162.3 387.8,201.3 388.1,208.2 388.3,206.2 388.6,167.1 388.9,207.9 389.2,168.1 389.4,202.4 389.7,207.0 390.0,212.5 390.3,170.1 390.5,203.1 390.8,170.1 391.1,208.4 391.4,169.0 391.6,200.6 391.9,202.0 392.2,201.5 392.5,205.3 392.7,207.5 393.0,169.7 393.3,208.7 393.6,170.9 393.8,169.9 394.1,210.5 394.4,198.7 394.7,196.2 394.9,209.6 395.2,206.7 395.5,207.8 395.8,206.6 396.0,166.2 396.3,208.3 396.6,206.0 396.9,206.9 397.1,191.0 397.4,205.6 397.7,203.2 398.0,169.2 398.2,206.1 398.5,206.5 398.8,166.6 399.1,205.7 399.3,199.0 399.6,208.9 399.9,201.2 400.2,206.4 400.4,169.8 400.7,204.7 401.0,167.5 401.3,206.7 401.5,206.9 401.8,200.5 402.1,159.9 402.4,165.0 402.6,169.3 402.9,169.1 403.2,202.4 403.5,207.4 403.7,205.8 404.0,167.4 404.3,170.0 404.6,169.3 404.8,168.3 405.1,207.7 405.4,205.9 405.7,163.4 405.9,208.8 406.2,171.3 406.5,208.9 406.8,170.6 407.0,209.3 407.3,210.3 407.6,210.4 407.9,207.6 408.1,207.9 408.4,201.5 408.7,208.3 409.0,167.4 409.2,205.7 409.5,171.7 409.8,169.8 410.1,202.4 410.3,167.8 410.6,209.0 410.9,168.7 411.2,167.5 411.4,203.0 411.7,209.3 412.0,210.8 412.3,207.8 412.5,204.7 412.8,208.9 413.1,199.9 413.4,170.0 413.6,207.7 413.9,205.1 414.2,204.1 414.5,169.0 414.7,206.4 415.0,207.0 415.3,163.9 415.6,169.7 415.8,209.4 416.1,169.0 416.4,168.1 416.7,205.3 416.9,203.1 417.2,163.6 417.5,206.4 417.8,169.7 418.0,170.8 418.3,207.2 418.6,166.3 418.9,210.2 419.1,209.2 419.4,207.4 419.7,169.9 420.0,129.7 420.2,208.9 420.5,169.6 420.8,168.6 421.1,208.4 421.3,171.1 421.6,210.1 421.9,204.8 422.2,205.1 422.4,204.9 422.7,208.7 423.0,163.3 423.3,129.4 423.5,169.7 423.8,207.1 424.1,169.7 424.4,205.6 424.6,205.2 424.9,200.4 425.2,195.9 425.5,206.4 425.7,206.4 426.0,203.9 426.3,169.3 426.6,207.4 426.9,206.9 427.1,208.7 427.4,195.3 427.7,204.4 428.0,198.2 428.2,165.0 428.5,207.4 428.8,208.6 429.1,205.6 429.3,207.7 429.6,206.1 429.9,169.3 430.2,197.4 430.4,202.9 430.7,210.4 431.0,170.6 431.3,171.1 431.5,208.3 431.8,170.2 432.1,206.2 432.4,205.7 432.6,206.1 432.9,208.3 433.2,197.9 433.5,207.4 433.7,207.8 434.0,193.6 434.3,193.9 434.6,197.1 434.8,201.5 435.1,202.2 435.4,198.8 435.7,198.2 435.9,184.8 436.2,168.8 436.5,168.0 436.8,203.5 437.0,198.0 437.3,205.3 437.6,199.6 437.9,196.9 438.1,167.5 438.4,167.0 438.7,165.1 439.0,203.9 439.2,203.7 439.5,199.7 439.8,202.7 440.1,208.1 440.3,201.0 440.6,169.7 440.9,205.5 441.2,207.9 441.4,197.6 441.7,201.0 442.0,205.9 442.3,198.0 442.5,169.3 442.8,202.2 443.1,164.5 443.4,168.2 443.6,169.1 443.9,203.7 444.2,167.4 444.5,202.7 444.7,206.8 445.0,202.7 445.3,169.3 445.6,194.7 445.8,204.9 446.1,199.9 446.4,203.2 446.7,168.9 446.9,207.8 447.2,202.0 447.5,193.8 447.8,208.6 448.0,205.8 448.3,167.3 448.6,159.6 448.9,209.8 449.1,202.6 449.4,202.0 449.7,169.6 450.0,169.8 450.2,204.9 450.5,199.0 450.8,206.2 451.1,205.3 451.3,206.6 451.6,207.7 451.9,208.4 452.2,171.3 452.4,204.4 452.7,205.7 453.0,169.2 453.3,167.9 453.5,168.2 453.8,209.8 454.1,171.0 454.4,207.2 454.6,204.6 454.9,160.3 455.2,203.4 455.5,168.5 455.7,166.4 456.0,170.9 456.3,169.6 456.6,207.9 456.8,169.4 457.1,168.7 457.4,201.0 457.7,168.4 457.9,203.6 458.2,210.7 458.5,120.7 458.8,206.1 459.0,202.2 459.3,206.4 459.6,207.9 459.9,210.5 460.1,204.6 460.4,204.0 460.7,169.6 461.0,204.7 461.2,205.2 461.5,166.6 461.8,167.2 462.1,206.7 462.3,166.8 462.6,168.6 462.9,206.5 463.2,209.6 463.4,209.8 463.7,171.7 464.0,207.4 464.3,205.3 464.5,170.0 464.8,209.5 465.1,207.0 465.4,169.9 465.6,208.3 465.9,208.2 466.2,168.2 466.5,206.7 466.7,211.3 467.0,208.2 467.3,210.9 467.6,201.5 467.8,209.6 468.1,204.4 468.4,168.3 468.7,203.9 468.9,200.0 469.2,166.3 469.5,204.2 469.8,207.2 470.0,197.1 470.3,208.3 470.6,168.3 470.9,199.5 471.1,170.7 471.4,207.7 471.7,205.4 472.0,163.7 472.2,210.7 472.5,169.4 472.8,205.6 473.1,205.6 473.3,169.5 473.6,197.5 473.9,200.6 474.2,206.2 474.4,204.6 474.7,164.3 475.0,197.4 475.3,123.1 475.6,208.4 475.8,209.0 476.1,165.6 476.4,207.4 476.7,203.9 476.9,210.3 477.2,204.7 477.5,207.0 477.8,206.9 478.0,163.5 478.3,204.3 478.6,206.4 478.9,169.4 479.1,203.8 479.4,197.3 479.7,201.2 480.0,201.4 480.2,203.6 480.5,186.1 480.8,199.6 481.1,206.0 481.3,202.7 481.6,198.2 481.9,169.5 482.2,169.9 482.4,206.9 482.7,211.7 483.0,171.8 483.3,169.5 483.5,171.6 483.8,202.7 484.1,164.3 484.4,200.4 484.6,208.3 484.9,202.5 485.2,200.8 485.5,168.8 485.7,202.2 486.0,199.7 486.3,168.1 486.6,164.6 486.8,200.4 487.1,204.7 487.4,171.7 487.7,199.0 487.9,203.9 488.2,200.4 488.5,204.9 488.8,167.6 489.0,166.7 489.3,205.5 489.6,207.4 489.9,204.0 490.1,169.0 490.4,192.3 490.7,209.9 491.0,168.8 491.2,167.3 491.5,205.5 491.8,167.3 492.1,206.4 492.3,163.8 492.6,168.5 492.9,206.4 493.2,207.4 493.4,203.3 493.7,170.5 494.0,207.8 494.3,169.8 494.5,208.8 494.8,201.5 495.1,168.7 495.4,194.0 495.6,169.7 495.9,168.0 496.2,207.1 496.5,170.9 496.7,169.7 497.0,207.6 497.3,167.4 497.6,170.2 497.8,206.7 498.1,207.0 498.4,209.2 498.7,205.9 498.9,202.4 499.2,202.2 499.5,196.7 499.8,162.9 500.0,170.2 500.3,206.1 500.6,206.2 500.9,204.0 501.1,200.9 501.4,203.3 501.7,171.8 502.0,172.5 502.2,208.4 502.5,211.2 502.8,210.0 503.1,168.0 503.3,204.4 503.6,130.2 503.9,168.7 504.2,210.6 504.4,208.3 504.7,201.6 505.0,208.6 505.3,204.8 505.5,205.7 505.8,205.4 506.1,166.5 506.4,208.4 506.6,206.0 506.9,169.2 507.2,172.7 507.5,196.3 507.7,170.2 508.0,205.6 508.3,83.5 508.6,168.3 508.8,209.6 509.1,167.7 509.4,166.6 509.7,169.0 509.9,197.0 510.2,205.1 510.5,201.8 510.8,166.3 511.0,204.6 511.3,204.5 511.6,169.9 511.9,205.8 512.1,197.3 512.4,200.9 512.7,166.0 513.0,168.3 513.2,201.5 513.5,163.8 513.8,162.8 514.1,168.7 514.3,206.2 514.6,168.5 514.9,206.6 515.2,199.9 515.4,198.2 515.7,169.8 516.0,204.2 516.3,203.9 516.5,206.2 516.8,168.7 517.1,210.6 517.4,209.4 517.6,193.8 517.9,161.5 518.2,210.1 518.5,209.9 518.7,170.6 519.0,204.9 519.3,208.0 519.6,161.8 519.8,202.9 520.1,204.7 520.4,198.6 520.7,207.2 520.9,167.1 521.2,203.1 521.5,168.5 521.8,202.6 522.0,204.7 522.3,169.4 522.6,165.0 522.9,204.9 523.1,203.1 523.4,209.9 523.7,126.4 524.0,204.6 524.3,171.3 524.5,172.9 524.8,201.7 525.1,200.5 525.4,197.7 525.6,167.6 525.9,200.5 526.2,169.3 526.5,206.2 526.7,200.5 527.0,203.3 527.3,199.2 527.6,128.7 527.8,209.0 528.1,203.0 528.4,210.6 528.7,202.2 528.9,205.3 529.2,209.4 529.5,201.2 529.8,198.5 530.0,168.3 530.3,165.2 530.6,204.0 530.9,204.1 531.1,195.8 531.4,201.9 531.7,205.0 532.0,201.8 532.2,167.8 532.5,200.9 532.8,206.4 533.1,167.9 533.3,208.6 533.6,165.2 533.9,200.5 534.2,210.6 534.4,159.2 534.7,166.2 535.0,210.9 535.3,208.9 535.5,169.4 535.8,169.8 536.1,205.6 536.4,125.7 536.6,210.7 536.9,211.1 537.2,209.5 537.5,211.3 537.7,167.6 538.0,151.7 538.3,197.1 538.6,205.7 538.8,201.9 539.1,200.6 539.4,203.4 539.7,200.2 539.9,204.6 540.2,203.6 540.5,207.8 540.8,167.7 541.0,124.7 541.3,209.6 541.6,125.2 541.9,197.0 542.1,166.3 542.4,169.2 542.7,167.4 543.0,168.2 543.2,203.4 543.5,199.8 543.8,206.4 544.1,167.7 544.3,204.3 544.6,199.8 544.9,205.2 545.2,202.4 545.4,205.4 545.7,196.2 546.0,201.0 546.3,204.3 546.5,205.3 546.8,196.7 547.1,165.5 547.4,192.7 547.6,211.4 547.9,204.4 548.2,165.8 548.5,167.7 548.7,168.2 549.0,167.6 549.3,163.2 549.6,199.3 549.8,199.9 550.1,205.8 550.4,206.7 550.7,169.0 550.9,205.9 551.2,199.7 551.5,169.3 551.8,165.5 552.0,200.6 552.3,205.1 552.6,166.6 552.9,203.5 553.1,168.9 553.4,200.7 553.7,202.5 554.0,195.8 554.2,203.9 554.5,204.1 554.8,203.4 555.1,202.2 555.3,206.8 555.6,169.6 555.9,207.3 556.2,205.8 556.4,164.0 556.7,204.4 557.0,202.5 557.3,196.7 557.5,168.0 557.8,201.8 558.1,204.2 558.4,203.7 558.6,164.3 558.9,206.2 559.2,209.6 559.5,199.9 559.7,207.1 560.0,170.1 560.3,169.8 560.6,169.1 560.8,167.3 561.1,201.2 561.4,209.4 561.7,206.7 561.9,168.1 562.2,200.7 562.5,168.5 562.8,201.4 563.0,205.3 563.3,205.6 563.6,169.3 563.9,206.9 564.1,208.9 564.4,196.8 564.7,202.0 565.0,202.0 565.2,169.5 565.5,168.3 565.8,169.4 566.1,207.6 566.3,203.4 566.6,204.9 566.9,170.2 567.2,196.2 567.4,204.2 567.7,208.6 568.0,170.1 568.3,206.2 568.5,128.1 568.8,207.1 569.1,168.9 569.4,167.4 569.6,207.3 569.9,170.2 570.2,170.1 570.5,204.7 570.7,204.7 571.0,207.0 571.3,207.8 571.6,168.4 571.9,201.1 572.1,168.7 572.4,205.9 572.7,207.0 573.0,209.1 573.2,170.7 573.5,203.5 573.8,207.4 574.1,129.3 574.3,169.0 574.6,204.7 574.9,130.6 575.2,203.6 575.4,205.9 575.7,168.4 576.0,206.5 576.3,208.7 576.5,166.1 576.8,207.4 577.1,202.9 577.4,207.7 577.6,205.6 577.9,208.5 578.2,203.6 578.5,201.5 578.7,169.5 579.0,204.6 579.3,202.1 579.6,203.7 579.8,166.0 580.1,168.8 580.4,172.1 580.7,206.4 580.9,207.8 581.2,168.2 581.5,168.4 581.8,168.3 582.0,206.8 582.3,168.7 582.6,169.1 582.9,169.8 583.1,169.9 583.4,206.2 583.7,210.4 584.0,168.9 584.2,199.5 584.5,204.1 584.8,204.8 585.1,167.2 585.3,166.1 585.6,128.0 585.9,168.1 586.2,171.3 586.4,204.5 586.7,207.7 587.0,209.1 587.3,204.2 587.5,202.7 587.8,169.0 588.1,205.3 588.4,210.8 588.6,205.4 588.9,202.6 589.2,168.8 589.5,202.7 589.7,166.0 590.0,201.3 590.3,201.1 590.6,202.7 590.8,197.9 591.1,196.6 591.4,169.4 591.7,201.5 591.9,201.8 592.2,204.6 592.5,205.6 592.8,199.4 593.0,209.1 593.3,196.2 593.6,203.1 593.9,204.0 594.1,199.4 594.4,202.5 594.7,171.0 595.0,167.5 595.2,205.8 595.5,199.8 595.8,205.4 596.1,200.2 596.3,204.5 596.6,196.4 596.9,201.9 597.2,168.0 597.4,205.6 597.7,163.5 598.0,207.5 598.3,170.3 598.5,207.5 598.8,201.8 599.1,170.4 599.4,203.2 599.6,207.4 599.9,208.8 600.2,167.0 600.5,169.5 600.7,206.9 601.0,163.0 601.3,208.3 601.6,208.9 601.8,199.5 602.1,203.5 602.4,169.6 602.7,196.7 602.9,200.3 603.2,200.3 603.5,200.0 603.8,207.7 604.0,206.6 604.3,194.8 604.6,168.9 604.9,165.0 605.1,202.8 605.4,206.3 605.7,209.7 606.0,200.5 606.2,169.7 606.5,208.9 606.8,196.5 607.1,202.0 607.3,205.1 607.6,161.2 607.9,167.5 608.2,199.4 608.4,207.7 608.7,200.1 609.0,199.6 609.3,168.0 609.5,208.0 609.8,162.6 610.1,211.9 610.4,199.6 610.6,169.2 610.9,205.6 611.2,201.5 611.5,208.6 611.7,165.2 612.0,203.8 612.3,168.7 612.6,206.5 612.8,168.3 613.1,127.7 613.4,202.6 613.7,204.7 613.9,200.3 614.2,202.0 614.5,208.7 614.8,200.5 615.0,204.6 615.3,208.3 615.6,167.0 615.9,199.6 616.1,167.0 616.4,201.0 616.7,200.8 617.0,205.5 617.2,205.7 617.5,208.0 617.8,206.6 618.1,209.8 618.3,205.8 618.6,194.3 618.9,167.8 619.2,206.7 619.4,166.0 619.7,207.7 620.0,208.4"/><rect x="420" y="30" width="10" height="3" fill="#f87171"/><text class="lg" x="435" y="34">image_proc (median 12.3, p95 21.8 ms)</text><rect x="420" y="46" width="10" height="3" fill="#22d3ee"/><text class="lg" x="435" y="50">gst_adapt_node (median 4.8, p95 14.5 ms)</text></svg>