<svg xmlns="http://www.w3.org/2000/svg" viewBox="0 0 640 210" role="img" aria-label="Resource comparison" style="max-width:100%;height:auto;background:#111827;border-radius:12px"><style>text{font-family:-apple-system,system-ui,sans-serif;fill:#e2e8f0}.ax{stroke:#64748b;stroke-width:1;opacity:.25}.tk{fill:#64748b;font-size:10px}.ti{font-size:13px;font-weight:600}.lg{font-size:11px}</style><text x="40" y="22" class="ti">Resource comparison</text><text x="10" y="54" class="lg">Latency (median ms)</text><rect x="170" y="40" width="5.8" height="8" fill="#f87171" opacity=".85" rx="2"/><text class="tk" x="181.8" y="47">12.2</text><rect x="170" y="52" width="2.3" height="8" fill="#22d3ee" opacity=".95" rx="2"/><text class="tk" x="178.3" y="59">4.8</text><text x="10" y="104" class="lg">CPU (mean %)</text><rect x="170" y="90" width="30.7" height="8" fill="#f87171" opacity=".85" rx="2"/><text class="tk" x="206.7" y="97">65.0</text><rect x="170" y="102" width="26.2" height="8" fill="#22d3ee" opacity=".95" rx="2"/><text class="tk" x="202.2" y="109">55.5</text><text x="10" y="154" class="lg">RSS (mean MB)</text><rect x="170" y="140" width="382.6" height="8" fill="#f87171" opacity=".85" rx="2"/><text class="tk" x="558.6" y="147">810.5</text><rect x="170" y="152" width="352.9" height="8" fill="#22d3ee" opacity=".95" rx="2"/><text class="tk" x="528.9" y="159">747.6</text><rect x="170" y="186" width="10" height="8" fill="#f87171"/><text class="lg" x="186" y="194">image_proc</text><rect x="300" y="186" width="10" height="8" fill="#22d3ee"/><text class="lg" x="316" y="194">gst_adapt_node</text><text class="tk" x="610" y="194" text-anchor="end">lower is better</text></svg>