<svg xmlns="http://www.w3.org/2000/svg" viewBox="0 0 720 266" role="img" aria-label="Resource comparison" style="max-width:100%;height:auto;background:#F6F3EB;display:block"><style>text{font-family:-apple-system, ui-sans-serif, system-ui, "IBM Plex Sans", sans-serif;fill:#3F3C37}.ti{font-size:13px;font-weight:600;fill:#14120F;letter-spacing:.02em}.tk{fill:#73706A;font-size:10px;font-family:"IBM Plex Mono", ui-monospace, SFMono-Regular, monospace;font-variant-numeric:tabular-nums}.ax{fill:#73706A;font-size:10px;letter-spacing:.08em;text-transform:uppercase}.lg{font-size:11px;fill:#3F3C37;font-family:"IBM Plex Mono", ui-monospace, SFMono-Regular, monospace}.kicker{font-size:10px;font-weight:600;letter-spacing:.12em;text-transform:uppercase;fill:#73706A}</style><rect x="0" y="0" width="720" height="266" fill="#F6F3EB"/><text x="24" y="26" class="kicker">Figure · resource usage — lower is better</text><text x="24" y="50" class="ti">Median latency · mean CPU · mean RSS</text><text x="24" y="84" class="lg" fill="#3F3C37">Latency median (ms)</text><rect x="200" y="82" width="365.2" height="10" fill="#73706A" opacity="0.55"/><text class="tk" x="571.2" y="90" fill="#3F3C37">12.25</text><rect x="200" y="96" width="143.0" height="10" fill="#8F2D11"/><text class="tk" x="349.0" y="104" fill="#8F2D11" font-weight="600">4.80</text><text class="tk" x="670" y="95" text-anchor="middle" fill="#8F2D11" font-weight="600">−60.8%</text><text x="24" y="142" class="lg" fill="#3F3C37">CPU mean (%)</text><rect x="200" y="140" width="365.2" height="10" fill="#73706A" opacity="0.55"/><text class="tk" x="571.2" y="148" fill="#3F3C37">64.99</text><rect x="200" y="154" width="312.1" height="10" fill="#8F2D11"/><text class="tk" x="518.1" y="162" fill="#8F2D11" font-weight="600">55.54</text><text class="tk" x="670" y="153" text-anchor="middle" fill="#8F2D11" font-weight="600">−14.5%</text><text x="24" y="200" class="lg" fill="#3F3C37">RSS mean (MB)</text><rect x="200" y="198" width="365.2" height="10" fill="#73706A" opacity="0.55"/><text class="tk" x="571.2" y="206" fill="#3F3C37">810.52</text><rect x="200" y="212" width="336.9" height="10" fill="#8F2D11"/><text class="tk" x="542.9" y="220" fill="#8F2D11" font-weight="600">747.56</text><text class="tk" x="670" y="211" text-anchor="middle" fill="#8F2D11" font-weight="600">−7.8%</text><rect x="200" y="240" width="14" height="8" fill="#73706A" opacity="0.55"/><text class="lg" x="220" y="247">image_proc</text><rect x="310" y="240" width="14" height="8" fill="#8F2D11"/><text class="lg" x="330" y="247">gst_adapt_node</text><text class="tk" x="670" y="247" text-anchor="middle">Δ</text></svg>